<?xml version="1.0" encoding="UTF-8"?>
<svg viewBox="0 0 63 470" xmlns="http://www.w3.org/2000/svg" xmlns:xlink="http://www.w3.org/1999/xlink" version="1.1">
 <path id="Path" d="M45.447 394.792 L45.441 347.627 50.415 347.627 C51.078 347.627 51.714 347.364 52.183 346.895 52.652 346.426 52.915 345.79 52.915 345.127 L52.915 253.403 C59.29 250.136 62.327 235.157 62.327 232.981 62.327 230.413 60.957 228.04 58.733 226.756 56.509 225.473 53.769 225.473 51.545 226.756 49.322 228.04 47.952 230.413 47.952 232.981 L47.942 237.969 47.915 237.969 47.915 251.582 47.91 254.063 47.915 254.063 47.915 342.627 45.44 342.627 45.405 65.403 40.11 5.92 C40.127 4.807 39.736 3.726 39.011 2.881 37.393 0.942 34.326 0 29.634 0 25.203 0 22.356 0.947 20.933 2.896 20.252 3.807 19.949 4.945 20.085 6.074 L18.818 22.343 C18.324 22.106 17.783 21.98 17.234 21.975 15.134 21.978 13.434 23.681 13.434 25.781 13.434 27.88 15.134 29.583 17.234 29.587 17.588 29.568 17.937 29.497 18.271 29.378 L18.019 32.603 C17.764 32.521 17.501 32.468 17.234 32.444 15.874 32.444 14.618 33.169 13.938 34.347 13.258 35.525 13.258 36.975 13.938 38.153 14.618 39.331 15.874 40.056 17.234 40.056 17.308 40.056 17.369 40.018 17.442 40.014 L15.415 66.042 15.415 110.849 8.34 133.633 C8.326 133.883 8.289 134.132 8.228 134.375 L8.228 260.305 C8.227 260.968 8.49 261.604 8.959 262.073 9.428 262.542 10.064 262.806 10.727 262.805 L15.415 262.805 15.415 306.275 C14.324 306.149 13.219 306.279 12.187 306.655 9.482 307.693 7.667 310.256 7.585 313.153 7.504 316.049 9.172 318.71 11.814 319.899 9.241 321.052 7.588 323.613 7.598 326.433 7.607 329.253 9.277 331.803 11.858 332.939 13.017 333.309 14.208 333.573 15.415 333.727 L15.415 394.792 C15.415 420.679 11.069 433.726 2.073 451.338 1.45 452.29 -0 454.705 -0 456.57 -0 465.132 15.671 469.751 30.447 469.751 45.19 469.751 60.862 465.132 60.862 456.57 60.862 454.705 59.412 452.29 58.923 451.57 49.792 433.721 45.447 420.674 45.447 394.792 Z M52.952 232.981 C52.952 231.773 53.931 230.793 55.139 230.793 56.347 230.793 57.327 231.773 57.327 232.981 57.327 235.425 55.127 242.566 52.925 246.46 Z M30.415 393.125 C27.045 393.022 23.694 392.572 20.415 391.783 L20.415 385.961 C23.315 385.47 25.707 383.417 26.632 380.625 L30.415 380.625 C31.078 380.625 31.714 380.362 32.183 379.893 32.652 379.424 32.915 378.788 32.915 378.125 L32.915 363.347 34.261 363.347 C35.179 366.119 37.541 368.165 40.415 368.677 L40.415 391.815 C37.141 392.623 33.787 393.062 30.415 393.125 Z M20.415 342.497 C21.428 342.981 22.073 344.004 22.073 345.127 22.073 346.25 21.428 347.272 20.415 347.757 Z M20.415 352.963 C23.315 352.472 25.707 350.419 26.632 347.627 L27.915 347.627 27.915 375.625 26.632 375.625 C25.707 372.833 23.315 370.78 20.415 370.289 Z M20.415 375.495 C21.428 375.979 22.073 377.002 22.073 378.125 22.073 379.248 21.428 380.27 20.415 380.755 Z M40.415 363.434 C39.438 362.942 38.821 361.941 38.821 360.847 38.821 359.753 39.438 358.752 40.415 358.26 Z M40.415 353.017 C37.541 353.529 35.179 355.576 34.261 358.347 L32.915 358.347 32.915 347.627 40.415 347.627 Z M15.415 166.438 L13.228 166.438 13.228 136.875 15.415 136.875 Z M13.228 191.794 L15.415 191.794 15.415 204.236 13.228 204.236 Z M13.228 186.794 L13.228 171.438 15.415 171.438 15.415 186.794 Z M13.228 209.236 L15.415 209.236 15.415 240.937 13.228 240.937 Z M20.412 209.236 L22.904 209.236 C24.131 212.951 27.874 215.225 31.737 214.603 35.599 213.982 38.439 210.648 38.439 206.736 38.439 202.823 35.599 199.49 31.737 198.868 27.874 198.247 24.131 200.521 22.904 204.236 L20.412 204.236 20.411 191.794 23.802 191.794 C25.011 195.01 28.346 196.901 31.726 196.287 35.105 195.673 37.562 192.729 37.562 189.294 37.562 185.859 35.105 182.916 31.726 182.302 28.346 181.688 25.011 183.579 23.802 186.794 L20.411 186.794 20.411 171.438 23.802 171.438 C25.011 174.653 28.346 176.544 31.726 175.93 35.105 175.316 37.562 172.373 37.562 168.938 37.562 165.503 35.105 162.559 31.726 161.945 28.346 161.331 25.011 163.222 23.802 166.438 L20.411 166.438 20.409 94.792 40.415 94.792 40.415 225.793 20.413 225.793 Z M27.463 206.736 C27.463 205.535 28.187 204.452 29.296 203.993 30.405 203.533 31.682 203.787 32.531 204.637 33.38 205.486 33.634 206.762 33.175 207.872 32.715 208.981 31.633 209.704 30.432 209.704 28.794 209.702 27.466 208.374 27.463 206.736 Z M27.783 189.294 C27.783 187.831 28.969 186.645 30.432 186.645 31.895 186.645 33.081 187.831 33.081 189.294 33.081 190.757 31.895 191.943 30.432 191.943 28.97 191.941 27.785 190.756 27.783 189.294 Z M27.783 168.938 C27.783 167.866 28.429 166.901 29.418 166.491 30.408 166.081 31.548 166.307 32.305 167.065 33.063 167.822 33.289 168.962 32.879 169.952 32.469 170.941 31.504 171.587 30.432 171.587 28.97 171.585 27.785 170.4 27.783 168.938 Z M40.415 65.625 L40.415 89.792 20.408 89.792 20.408 66.238 21.479 52.5 39.245 52.5 Z M30.415 38.75 C33.501 38.742 36.305 36.95 37.609 34.152 L38.799 47.5 21.869 47.5 22.96 33.516 C24.102 36.651 27.078 38.741 30.415 38.75 Z M27.446 30.781 C27.446 29.58 28.17 28.498 29.279 28.038 30.388 27.579 31.665 27.833 32.514 28.682 33.363 29.531 33.617 30.808 33.158 31.917 32.698 33.027 31.616 33.75 30.415 33.75 28.777 33.747 27.449 32.42 27.446 30.781 Z M29.634 5 C33.56 5 34.802 5.771 35.1 6.018 L36.898 26.179 C35.325 23.937 32.705 22.669 29.971 22.825 27.237 22.982 24.779 24.542 23.472 26.948 L25.127 5.735 C25.513 5.5 26.682 5 29.634 5 Z M15.415 131.875 L14.122 131.875 15.415 127.711 Z M13.228 257.805 L13.228 245.938 15.415 245.938 15.415 257.805 Z M22.904 262.805 C24.131 266.52 27.874 268.794 31.737 268.173 35.599 267.551 38.439 264.217 38.439 260.305 38.439 256.393 35.599 253.059 31.737 252.437 27.874 251.816 24.131 254.09 22.904 257.805 L20.414 257.805 20.413 245.937 22.904 245.937 C24.131 249.652 27.874 251.927 31.737 251.305 35.599 250.683 38.439 247.35 38.439 243.437 38.439 239.525 35.599 236.191 31.737 235.57 27.874 234.948 24.131 237.223 22.904 240.937 L20.413 240.937 20.413 230.793 40.415 230.793 40.415 342.627 32.915 342.627 32.915 330.326 C32.92 330.234 32.918 330.145 32.915 330.053 L32.915 317.316 C32.92 317.224 32.918 317.135 32.915 317.043 L32.915 307.526 C36.479 306.365 38.747 302.872 38.357 299.144 37.968 295.416 35.026 292.467 31.298 292.069 27.571 291.671 24.073 293.931 22.904 297.493 L20.415 297.493 20.414 285.625 22.904 285.625 C24.131 289.34 27.874 291.614 31.737 290.993 35.599 290.371 38.439 287.037 38.439 283.125 38.439 279.213 35.599 275.879 31.737 275.257 27.874 274.636 24.131 276.91 22.904 280.625 L20.414 280.625 20.413 262.805 Z M27.463 260.305 C27.463 259.104 28.187 258.022 29.296 257.562 30.405 257.103 31.682 257.357 32.531 258.206 33.38 259.055 33.634 260.332 33.175 261.441 32.715 262.55 31.633 263.274 30.432 263.274 28.794 263.271 27.466 261.944 27.463 260.305 Z M27.463 243.437 C27.463 242.237 28.187 241.154 29.296 240.695 30.405 240.235 31.682 240.489 32.531 241.338 33.38 242.187 33.634 243.464 33.175 244.573 32.715 245.683 31.633 246.406 30.432 246.406 28.794 246.403 27.466 245.076 27.463 243.438 Z M20.415 307.975 L20.415 302.493 22.904 302.493 C23.693 304.861 25.549 306.721 27.915 307.515 L27.915 311.617 C25.479 310.277 22.975 309.061 20.415 307.975 Z M30.432 302.961 C29.231 302.961 28.149 302.238 27.689 301.129 27.23 300.019 27.484 298.742 28.333 297.893 29.182 297.044 30.459 296.79 31.568 297.25 32.678 297.709 33.401 298.792 33.401 299.993 33.398 301.631 32.071 302.959 30.432 302.961 Z M27.915 324.627 C26.208 323.652 23.98 322.562 21.107 321.289 21.432 321.305 21.756 321.32 22.046 321.328 Q22.925 321.354 23.706 321.355 C25.113 321.369 26.52 321.284 27.915 321.101 Z M27.463 283.125 C27.463 281.924 28.187 280.842 29.296 280.382 30.405 279.923 31.682 280.177 32.531 281.026 33.38 281.875 33.634 283.152 33.175 284.261 32.715 285.37 31.633 286.094 30.432 286.094 28.794 286.091 27.466 284.763 27.463 283.125 Z M12.773 312.473 C13.008 311.942 13.444 311.526 13.987 311.318 14.528 311.11 15.129 311.124 15.659 311.36 L16.738 311.826 C19.937 313.123 23.052 314.616 26.067 316.296 22.17 316.56 15.444 316.013 13.884 315.359 12.782 314.868 12.285 313.577 12.773 312.473 Z M12.732 327.156 C12.414 326.33 12.624 325.395 13.265 324.785 13.906 324.175 14.851 324.011 15.659 324.37 L16.743 324.836 C19.94 326.134 23.054 327.626 26.067 329.307 22.17 329.575 15.444 329.021 13.884 328.369 13.353 328.135 12.938 327.698 12.732 327.156 Z M23.481 334.402 C24.968 334.402 26.451 334.274 27.915 334.02 L27.915 342.627 26.632 342.627 C25.707 339.835 23.315 337.782 20.415 337.291 L20.415 334.286 C21.429 334.354 22.459 334.402 23.481 334.402 Z M30.417 464.751 C14.902 464.751 5 459.905 4.998 456.641 5.331 455.649 5.8 454.708 6.392 453.845 15.638 435.778 20.155 422.401 20.392 396.899 23.685 397.636 27.042 398.046 30.415 398.125 33.79 398.079 37.15 397.681 40.442 396.938 L40.447 397.292 40.459 397.292 C40.737 422.559 45.271 435.864 54.604 454.075 55.126 454.851 55.548 455.689 55.862 456.57 55.862 459.905 45.962 464.751 30.417 464.751 Z" fill="#000000" fill-opacity="1" stroke="none"/>
 <path id="Path-1" d="M37.603 129.688 C37.615 126.043 34.899 122.966 31.281 122.527 27.663 122.088 24.289 124.426 23.43 127.968 22.571 131.509 24.498 135.134 27.915 136.401 L27.915 139.558 C25.105 140.599 23.236 143.275 23.228 146.272 23.228 148.474 25.1 158.75 30.415 158.75 35.73 158.75 37.603 148.474 37.603 146.272 37.594 143.275 35.725 140.599 32.915 139.558 L32.915 136.401 C35.725 135.36 37.594 132.684 37.603 129.688 Z M30.415 127.5 C31.3 127.5 32.097 128.033 32.436 128.85 32.775 129.668 32.587 130.609 31.962 131.234 31.336 131.86 30.395 132.047 29.578 131.708 28.761 131.37 28.228 130.572 28.228 129.688 28.229 128.48 29.208 127.501 30.415 127.5 Z M30.415 153.347 C29.181 151.175 28.435 148.761 28.228 146.272 28.228 145.064 29.207 144.084 30.415 144.084 31.623 144.084 32.603 145.064 32.603 146.272 32.395 148.761 31.649 151.175 30.415 153.347 Z" fill="#000000" fill-opacity="1" stroke="none"/>
 <path id="Path-2" d="M34.431 216.174 C32.74 216.174 31.369 217.545 31.369 219.236 31.369 220.927 32.74 222.298 34.431 222.298 36.123 222.298 37.494 220.927 37.494 219.236 37.494 217.545 36.123 216.174 34.432 216.174 Z" fill="#000000" fill-opacity="1" stroke="none"/>
</svg>
