<?xml version="1.0" encoding="UTF-8"?>
<svg width="90px" height="64px" viewBox="0 0 90 64" xmlns="http://www.w3.org/2000/svg" xmlns:xlink="http://www.w3.org/1999/xlink" version="1.1">
 <!-- Generated by Pixelmator Pro 2.0.8 -->
 <path id="Path" d="M80.303 44.559 C80.303 43.227 79.968 41.887 79.242 41.288 L79.242 35.423 C79.242 35.414 79.238 35.406 79.238 35.398 79.472 35.103 79.652 34.801 79.773 34.488 79.888 34.338 79.96 34.152 79.96 33.947 L79.96 30.801 C79.96 30.583 79.879 30.386 79.749 30.231 77.619 25.071 59.443 22.3 42.28 22.3 37.192 22.3 32.015 22.544 27.193 23.022 L1.816 5.92 C1.289 5.57 0.524 5.727 0.176 6.252 0.001 6.515 -0.061 6.831 0.002 7.141 0.065 7.451 0.245 7.718 0.509 7.893 L24.166 23.355 C14.12 24.599 6.175 26.921 4.811 30.225 4.682 30.38 4.6 30.578 4.6 30.795 L4.6 33.941 C4.6 34.146 4.671 34.332 4.788 34.482 4.893 34.756 5.046 35.025 5.239 35.287 5.233 35.33 5.226 35.374 5.226 35.419 L5.226 41.284 C4.5 41.885 4.165 43.222 4.165 44.556 4.165 45.886 4.499 47.226 5.226 47.827 L5.226 51.271 C4.864 51.383 4.601 51.718 4.601 52.118 L4.601 55.267 C4.601 55.47 4.672 55.657 4.789 55.806 6.776 61.011 25.035 63.808 42.281 63.808 59.528 63.808 77.786 61.011 79.774 55.806 79.889 55.657 79.962 55.47 79.962 55.267 L79.962 52.118 C79.962 51.685 79.653 51.324 79.244 51.242 L79.244 47.83 C79.968 47.229 80.303 45.891 80.303 44.559 Z M7.009 53.729 C7.009 53.717 7.012 53.708 7.012 53.696 L7.012 36.856 C9.729 38.596 14.543 39.95 20.39 40.893 20.39 40.899 20.388 40.906 20.388 40.914 L20.388 46.485 C19.663 47.088 19.328 48.424 19.328 49.756 19.328 51.089 19.663 52.427 20.388 53.027 L20.388 58.131 C13.266 56.947 8.61 55.279 7.009 53.729 Z M35.821 30.974 C35.927 31.544 36.425 32.127 37.303 32.71 38.027 33.189 38.652 33.434 39.163 33.434 39.629 33.434 40.008 33.235 40.26 32.856 40.641 32.281 40.729 31.348 38.978 30.187 38.099 29.603 37.372 29.372 36.803 29.496 L32.59 26.658 C35.603 26.477 38.838 26.377 42.281 26.377 61.789 26.377 74.69 29.588 77.565 32.395 74.69 35.203 61.79 38.414 42.281 38.414 22.773 38.414 9.872 35.203 6.998 32.395 9.188 30.254 17.213 27.882 29.546 26.874 Z M42.28 40.701 C22.044 40.701 8.92 37.246 6.719 34.371 12.226 38.175 27.617 40.197 42.28 40.197 56.944 40.197 72.334 38.175 77.841 34.371 75.641 37.246 62.518 40.701 42.28 40.701 Z M22.175 53.029 C22.901 52.427 23.236 51.09 23.236 49.757 23.236 48.425 22.901 47.086 22.175 46.486 L22.175 41.166 C28.023 41.999 34.732 42.443 41.341 42.482 L41.341 48.365 C40.615 48.967 40.28 50.304 40.28 51.636 40.28 52.969 40.614 54.309 41.341 54.909 L41.341 59.73 C33.894 59.689 27.441 59.181 22.175 58.411 Z M43.127 54.909 C43.853 54.308 44.187 52.969 44.187 51.636 44.187 50.305 43.853 48.966 43.127 48.365 L43.127 42.482 C49.731 42.448 56.44 42.006 62.293 41.179 L62.293 46.486 C61.566 47.087 61.232 48.424 61.232 49.757 61.232 51.09 61.566 52.429 62.293 53.029 L62.293 58.425 C57.023 59.192 50.568 59.696 43.127 59.733 Z M64.079 53.029 C64.805 52.427 65.139 51.09 65.139 49.757 65.139 48.425 64.805 47.086 64.079 46.486 L64.079 40.908 C69.898 39.974 74.707 38.638 77.456 36.92 L77.456 53.695 C77.456 53.734 77.463 53.769 77.467 53.806 75.788 55.339 71.141 56.98 64.079 58.146 Z M42.28 24.086 C62.516 24.086 75.641 27.539 77.841 30.415 72.334 26.611 56.944 24.588 42.28 24.588 38.235 24.588 34.134 24.743 30.199 25.045 L29.515 24.585 C33.367 24.27 37.633 24.086 42.28 24.086 Z M26.481 24.87 L27.159 25.312 C18.101 26.21 10.311 27.934 6.72 30.415 8.278 28.378 15.319 26.054 26.481 24.87 Z M42.28 62.025 C22.044 62.025 8.92 58.57 6.719 55.695 9.459 57.589 14.639 59.04 20.968 60.021 21.066 60.056 21.171 60.081 21.282 60.081 21.3 60.081 21.317 60.076 21.334 60.075 27.648 61.029 35.051 61.521 42.28 61.521 56.942 61.521 72.334 59.5 77.841 55.695 75.641 58.57 62.518 62.025 42.28 62.025 Z" fill="#000000" fill-opacity="1" stroke="none"/>
 <path id="Path-1" d="M89.926 0.955 C89.705 0.362 89.007 0.034 88.403 0.259 L48.969 15.245 C48.446 14.995 47.682 15.054 46.694 15.421 45.846 15.737 45.269 16.118 44.978 16.554 44.736 16.918 44.687 17.324 44.838 17.729 44.984 18.123 45.345 18.592 46.23 18.592 46.652 18.592 47.164 18.48 47.751 18.261 48.739 17.894 49.355 17.439 49.589 16.908 L89.23 2.476 C89.527 2.366 89.763 2.146 89.894 1.859 90.023 1.572 90.035 1.251 89.926 0.955 Z" fill="#000000" fill-opacity="1" stroke="none"/>
</svg>
