<?xml version="1.0" encoding="UTF-8"?>
<svg width="486px" height="55px" viewBox="0 0 486 55" xmlns="http://www.w3.org/2000/svg" xmlns:xlink="http://www.w3.org/1999/xlink" version="1.1">
 <!-- Generated by Pixelmator Pro 2.0.8 -->
 <path id="Path" d="M268.528 1.304 C266.485 2.732 265.433 5.513 265.336 9.492 L4.119 9.492 C1.909 9.434 0.068 11.172 -0 13.381 L-0 43.069 C0.067 45.28 1.91 47.02 4.121 46.96 L190.476 46.96 190.476 55 400.596 55 400.596 46.96 438.909 46.96 438.909 55 467.249 55 467.249 46.96 481.885 46.96 C484.064 46.959 485.831 45.192 485.833 43.013 L485.833 13.418 C485.831 11.251 484.076 9.495 481.909 9.492 L293.445 9.492 C292.527 7.396 290.493 4.807 285.796 3.613 L273.599 0.598 C271.891 0.026 270.014 0.288 268.528 1.304 Z M74.553 28.228 C74.553 22.71 71.549 17.821 66.917 14.492 L132.961 14.492 132.961 41.96 66.917 41.96 C71.549 38.632 74.553 33.744 74.553 28.228 Z M53.015 41.36 C43.896 41.36 36.477 35.469 36.477 28.228 36.477 20.984 43.896 15.093 53.015 15.093 62.134 15.093 69.553 20.984 69.553 28.228 69.553 35.469 62.134 41.36 53.015 41.36 Z M137.961 41.96 L137.961 14.492 170.068 14.492 170.068 41.96 Z M223.298 46.96 L223.298 50 208.696 50 208.696 46.96 Z M228.298 46.96 L246.638 46.96 246.638 50 228.298 50 Z M251.638 46.96 L269.685 46.96 269.685 50 251.638 50 Z M274.685 46.96 L282.693 46.96 282.693 50 274.685 50 Z M280.067 41.96 C282.785 38.043 282.147 32.713 278.58 29.548 275.014 26.384 269.646 26.384 266.079 29.548 262.513 32.713 261.875 38.043 264.593 41.96 L256.73 41.96 C259.449 38.043 258.811 32.711 255.244 29.545 251.677 26.38 246.307 26.38 242.74 29.545 239.173 32.711 238.535 38.043 241.254 41.96 L233.39 41.96 C236.109 38.043 235.471 32.711 231.904 29.545 228.337 26.38 222.967 26.38 219.4 29.545 215.833 32.711 215.195 38.043 217.914 41.96 L175.068 41.96 175.068 14.492 266.33 14.492 C267.498 16.826 269.552 18.595 272.034 19.404 L282.461 22.49 C282.554 22.52 282.629 22.546 282.693 22.571 L282.693 41.96 Z M272.329 41.033 C269.889 41.033 267.91 39.054 267.91 36.614 267.91 34.173 269.889 32.195 272.329 32.195 274.77 32.195 276.748 34.173 276.748 36.614 276.746 39.053 274.769 41.03 272.329 41.033 Z M248.992 41.033 C247.204 41.033 245.593 39.956 244.909 38.305 244.225 36.654 244.603 34.753 245.867 33.489 247.131 32.225 249.032 31.847 250.683 32.531 252.334 33.215 253.411 34.826 253.411 36.614 253.408 39.053 251.431 41.03 248.992 41.033 Z M225.652 41.033 C223.865 41.033 222.253 39.956 221.569 38.305 220.885 36.654 221.263 34.753 222.527 33.489 223.791 32.225 225.692 31.847 227.343 32.531 228.994 33.215 230.071 34.826 230.071 36.614 230.068 39.053 228.091 41.03 225.652 41.033 Z M5 14.492 L39.114 14.492 C34.482 17.821 31.477 22.71 31.477 28.228 31.477 33.744 34.481 38.632 39.113 41.96 L5 41.96 Z M195.476 46.96 L203.696 46.96 203.696 50 195.476 50 Z M325.872 46.96 L325.872 50 307.532 50 307.532 46.96 Z M330.872 46.96 L348.919 46.96 348.919 50 330.872 50 Z M353.918 46.96 L372.258 46.96 372.258 50 353.919 50 Z M405.834 41.96 C408.553 38.043 407.915 32.711 404.348 29.545 400.781 26.38 395.411 26.38 391.844 29.545 388.277 32.711 387.639 38.043 390.358 41.96 L382.496 41.96 C385.215 38.043 384.577 32.711 381.01 29.545 377.443 26.38 372.073 26.38 368.506 29.545 364.939 32.711 364.301 38.043 367.02 41.96 L359.157 41.96 C361.876 38.043 361.237 32.711 357.67 29.545 354.103 26.38 348.734 26.38 345.167 29.545 341.6 32.711 340.961 38.043 343.68 41.96 L335.817 41.96 C338.536 38.043 337.898 32.711 334.331 29.545 330.764 26.38 325.394 26.38 321.827 29.545 318.26 32.711 317.622 38.043 320.341 41.96 L312.479 41.96 C315.198 38.043 314.56 32.711 310.993 29.545 307.426 26.38 302.056 26.38 298.489 29.545 294.922 32.711 294.284 38.043 297.003 41.96 L294.214 41.96 294.214 14.492 418.604 14.492 418.604 41.96 Z M398.096 41.033 C396.308 41.033 394.697 39.956 394.013 38.305 393.329 36.654 393.707 34.753 394.971 33.489 396.235 32.225 398.136 31.847 399.787 32.531 401.438 33.215 402.515 34.826 402.515 36.614 402.512 39.053 400.535 41.03 398.096 41.033 Z M374.758 41.033 C372.971 41.033 371.36 39.956 370.676 38.305 369.992 36.654 370.37 34.753 371.634 33.489 372.897 32.225 374.798 31.847 376.449 32.531 378.101 33.215 379.177 34.826 379.177 36.614 379.174 39.053 377.198 41.03 374.758 41.033 Z M351.419 41.033 C349.631 41.033 348.02 39.956 347.336 38.305 346.652 36.654 347.03 34.753 348.294 33.489 349.558 32.225 351.458 31.847 353.11 32.531 354.761 33.215 355.837 34.826 355.837 36.614 355.835 39.053 353.858 41.03 351.419 41.033 Z M328.079 41.033 C326.291 41.033 324.68 39.956 323.996 38.305 323.312 36.654 323.69 34.753 324.954 33.489 326.218 32.225 328.118 31.847 329.77 32.531 331.421 33.215 332.498 34.826 332.498 36.614 332.495 39.053 330.518 41.03 328.079 41.033 Z M304.741 41.033 C302.954 41.033 301.343 39.956 300.659 38.305 299.975 36.654 300.353 34.753 301.617 33.489 302.88 32.225 304.781 31.847 306.432 32.531 308.084 33.215 309.16 34.826 309.16 36.614 309.157 39.053 307.181 41.03 304.741 41.033 Z M302.532 46.96 L302.532 50 294.214 50 294.214 46.96 Z M395.596 50 L377.258 50 377.258 46.96 395.596 46.96 Z M462.249 50 L443.909 50 443.909 46.96 462.249 46.96 Z M480.833 41.96 L472.487 41.96 C475.206 38.043 474.567 32.711 471.001 29.545 467.434 26.38 462.064 26.38 458.497 29.545 454.93 32.711 454.292 38.043 457.011 41.96 L449.147 41.96 C451.865 38.043 451.226 32.713 447.66 29.548 444.094 26.384 438.725 26.384 435.159 29.548 431.593 32.713 430.954 38.043 433.672 41.96 L423.604 41.96 423.604 14.492 480.833 14.492 Z M464.749 41.033 C462.308 41.033 460.33 39.054 460.33 36.614 460.33 34.173 462.308 32.195 464.749 32.195 467.189 32.195 469.168 34.173 469.168 36.614 469.165 39.053 467.188 41.03 464.749 41.033 Z M441.409 41.033 C439.621 41.033 438.01 39.956 437.326 38.305 436.642 36.654 437.02 34.753 438.284 33.489 439.548 32.225 441.449 31.847 443.1 32.531 444.751 33.215 445.828 34.826 445.828 36.614 445.825 39.053 443.848 41.03 441.409 41.033 Z M272.141 5.374 L284.578 8.464 C288.943 9.57 289.199 12.31 289.214 12.563 L289.214 50 287.693 50 287.693 22.102 C287.693 21.128 287.324 18.747 283.901 17.703 L273.42 14.6 C271.473 13.961 270.194 12.098 270.298 10.051 270.298 6.418 271.194 5.552 271.374 5.415 271.609 5.281 271.893 5.266 272.141 5.374 Z" fill="#000000" fill-opacity="1" stroke="none"/>
 <path id="Path-1" d="M59.605 28.226 C59.605 25.237 56.654 22.814 53.014 22.814 49.374 22.814 46.423 25.237 46.423 28.226 46.423 31.216 49.374 33.639 53.014 33.639 56.654 33.639 59.605 31.215 59.605 28.226 Z" fill="#000000" fill-opacity="1" stroke="none"/>
</svg>
