<?xml version="1.0" encoding="UTF-8"?>
<svg viewBox="0 0 55 486" xmlns="http://www.w3.org/2000/svg" xmlns:xlink="http://www.w3.org/1999/xlink" version="1.1">
 <path id="Path" d="M53.696 268.528 C52.268 266.485 49.487 265.433 45.508 265.336 L45.508 4.119 C45.566 1.909 43.828 0.068 41.619 0 L11.931 0 C9.72 0.067 7.98 1.91 8.04 4.121 L8.04 190.476 0 190.476 0 400.596 8.04 400.596 8.04 438.909 0 438.909 0 467.249 8.04 467.249 8.04 481.885 C8.041 484.064 9.808 485.831 11.987 485.833 L41.582 485.833 C43.749 485.831 45.505 484.076 45.508 481.909 L45.508 293.445 C47.604 292.527 50.193 290.493 51.387 285.796 L54.402 273.599 C54.974 271.891 54.712 270.014 53.696 268.528 Z M26.772 74.553 C32.29 74.553 37.179 71.549 40.508 66.917 L40.508 132.961 13.04 132.961 13.04 66.917 C16.368 71.549 21.256 74.553 26.772 74.553 Z M13.64 53.015 C13.64 43.896 19.531 36.477 26.772 36.477 34.016 36.477 39.907 43.896 39.907 53.015 39.907 62.134 34.016 69.553 26.772 69.553 19.531 69.553 13.64 62.134 13.64 53.015 Z M13.04 137.961 L40.508 137.961 40.508 170.068 13.04 170.068 Z M8.04 223.298 L5 223.298 5 208.696 8.04 208.696 Z M8.04 228.298 L8.04 246.638 5 246.638 5 228.298 Z M8.04 251.638 L8.04 269.685 5 269.685 5 251.638 Z M8.04 274.685 L8.04 282.693 5 282.693 5 274.685 Z M13.04 280.067 C16.957 282.785 22.287 282.147 25.452 278.58 28.616 275.014 28.616 269.646 25.452 266.079 22.287 262.513 16.957 261.875 13.04 264.593 L13.04 256.73 C16.957 259.449 22.289 258.811 25.455 255.244 28.62 251.677 28.62 246.307 25.455 242.74 22.289 239.173 16.957 238.535 13.04 241.254 L13.04 233.39 C16.957 236.109 22.289 235.471 25.455 231.904 28.62 228.337 28.62 222.967 25.455 219.4 22.289 215.833 16.957 215.195 13.04 217.914 L13.04 175.068 40.508 175.068 40.508 266.33 C38.174 267.498 36.405 269.552 35.596 272.034 L32.51 282.461 C32.48 282.554 32.454 282.629 32.429 282.693 L13.04 282.693 Z M13.967 272.329 C13.967 269.889 15.946 267.91 18.386 267.91 20.827 267.91 22.805 269.889 22.805 272.329 22.805 274.77 20.827 276.748 18.386 276.748 15.947 276.746 13.97 274.769 13.967 272.329 Z M13.967 248.992 C13.967 247.204 15.044 245.593 16.695 244.909 18.346 244.225 20.247 244.603 21.511 245.867 22.775 247.131 23.153 249.032 22.469 250.683 21.785 252.334 20.174 253.411 18.386 253.411 15.947 253.408 13.97 251.431 13.967 248.992 Z M13.967 225.652 C13.967 223.865 15.044 222.253 16.695 221.569 18.346 220.885 20.247 221.263 21.511 222.527 22.775 223.791 23.153 225.692 22.469 227.343 21.785 228.994 20.174 230.071 18.386 230.071 15.947 230.068 13.97 228.091 13.967 225.652 Z M40.508 5 L40.508 39.114 C37.179 34.482 32.29 31.477 26.772 31.477 21.256 31.477 16.368 34.481 13.04 39.113 L13.04 5 Z M8.04 195.476 L8.04 203.696 5 203.696 5 195.476 Z M8.04 325.872 L5 325.872 5 307.532 8.04 307.532 Z M8.04 330.872 L8.04 348.919 5 348.919 5 330.872 Z M8.04 353.918 L8.04 372.258 5 372.258 5 353.919 Z M13.04 405.834 C16.957 408.553 22.289 407.915 25.455 404.348 28.62 400.781 28.62 395.411 25.455 391.844 22.289 388.277 16.957 387.639 13.04 390.358 L13.04 382.496 C16.957 385.215 22.289 384.577 25.455 381.01 28.62 377.443 28.62 372.073 25.455 368.506 22.289 364.939 16.957 364.301 13.04 367.02 L13.04 359.157 C16.957 361.876 22.289 361.237 25.455 357.67 28.62 354.103 28.62 348.734 25.455 345.167 22.289 341.6 16.957 340.961 13.04 343.68 L13.04 335.817 C16.957 338.536 22.289 337.898 25.455 334.331 28.62 330.764 28.62 325.394 25.455 321.827 22.289 318.26 16.957 317.622 13.04 320.341 L13.04 312.479 C16.957 315.198 22.289 314.56 25.455 310.993 28.62 307.426 28.62 302.056 25.455 298.489 22.289 294.922 16.957 294.284 13.04 297.003 L13.04 294.214 40.508 294.214 40.508 418.604 13.04 418.604 Z M13.967 398.096 C13.967 396.308 15.044 394.697 16.695 394.013 18.346 393.329 20.247 393.707 21.511 394.971 22.775 396.235 23.153 398.136 22.469 399.787 21.785 401.438 20.174 402.515 18.386 402.515 15.947 402.512 13.97 400.535 13.967 398.096 Z M13.967 374.758 C13.967 372.971 15.044 371.36 16.695 370.676 18.346 369.992 20.247 370.37 21.511 371.634 22.775 372.897 23.153 374.798 22.469 376.449 21.785 378.101 20.174 379.177 18.386 379.177 15.947 379.174 13.97 377.198 13.967 374.758 Z M13.967 351.419 C13.967 349.631 15.044 348.02 16.695 347.336 18.346 346.652 20.247 347.03 21.511 348.294 22.775 349.558 23.153 351.458 22.469 353.11 21.785 354.761 20.174 355.837 18.386 355.837 15.947 355.835 13.97 353.858 13.967 351.419 Z M13.967 328.079 C13.967 326.291 15.044 324.68 16.695 323.996 18.346 323.312 20.247 323.69 21.511 324.954 22.775 326.218 23.153 328.118 22.469 329.77 21.785 331.421 20.174 332.498 18.386 332.498 15.947 332.495 13.97 330.518 13.967 328.079 Z M13.967 304.741 C13.967 302.954 15.044 301.343 16.695 300.659 18.346 299.975 20.247 300.353 21.511 301.617 22.775 302.88 23.153 304.781 22.469 306.432 21.785 308.084 20.174 309.16 18.386 309.16 15.947 309.157 13.97 307.181 13.967 304.741 Z M8.04 302.532 L5 302.532 5 294.214 8.04 294.214 Z M5 395.596 L5 377.258 8.04 377.258 8.04 395.596 Z M5 462.249 L5 443.909 8.04 443.909 8.04 462.249 Z M13.04 480.833 L13.04 472.487 C16.957 475.206 22.289 474.567 25.455 471.001 28.62 467.434 28.62 462.064 25.455 458.497 22.289 454.93 16.957 454.292 13.04 457.011 L13.04 449.147 C16.957 451.865 22.287 451.226 25.452 447.66 28.616 444.094 28.616 438.725 25.452 435.159 22.287 431.593 16.957 430.954 13.04 433.672 L13.04 423.604 40.508 423.604 40.508 480.833 Z M13.967 464.749 C13.967 462.308 15.946 460.33 18.386 460.33 20.827 460.33 22.805 462.308 22.805 464.749 22.805 467.189 20.827 469.168 18.386 469.168 15.947 469.165 13.97 467.188 13.967 464.749 Z M13.967 441.409 C13.967 439.621 15.044 438.01 16.695 437.326 18.346 436.642 20.247 437.02 21.511 438.284 22.775 439.548 23.153 441.449 22.469 443.1 21.785 444.751 20.174 445.828 18.386 445.828 15.947 445.825 13.97 443.848 13.967 441.409 Z M49.626 272.141 L46.536 284.578 C45.43 288.943 42.69 289.199 42.437 289.214 L5 289.214 5 287.693 32.898 287.693 C33.872 287.693 36.253 287.324 37.297 283.901 L40.4 273.42 C41.039 271.473 42.902 270.194 44.949 270.298 48.582 270.298 49.448 271.194 49.585 271.374 49.719 271.609 49.734 271.893 49.626 272.141 Z" fill="#000000" fill-opacity="1" stroke="none"/>
 <path id="Path-1" d="M26.774 59.605 C29.763 59.605 32.186 56.654 32.186 53.014 32.186 49.374 29.763 46.423 26.774 46.423 23.784 46.423 21.361 49.374 21.361 53.014 21.361 56.654 23.785 59.605 26.774 59.605 Z" fill="#000000" fill-opacity="1" stroke="none"/>
</svg>
