<?xml version="1.0" encoding="UTF-8"?>
<svg viewBox="0 0 262 480" xmlns="http://www.w3.org/2000/svg" xmlns:xlink="http://www.w3.org/1999/xlink" version="1.1">
 <path id="Path" d="M251.162 278.528 C242.856 271.837 234.164 265.64 225.131 259.968 221.64 257.737 190.776 238.228 183.222 239.912 182.305 240.089 181.498 240.63 180.986 241.411 179.909 243.102 180.209 245.213 184.091 249.284 187.656 256.176 187.064 260.287 185.795 263.386 L185.068 265.076 C177.216 282.388 173.073 301.15 172.905 320.159 L172.876 324.177 C172.844 327.83 172.816 331.596 172.887 336.112 171.945 337.138 171.113 338.261 170.405 339.461 L170.405 218.919 C170.405 218.255 170.142 217.619 169.673 217.15 169.204 216.682 168.568 216.418 167.905 216.419 L160.448 216.419 C158.82 212.628 155.341 209.953 151.259 209.354 L151.24 207.77 C156.387 206.94 160.15 202.466 160.087 197.253 160.023 192.039 156.153 187.658 150.987 186.953 L150.824 173.637 C151.275 173.763 151.739 173.832 152.207 173.843 152.353 173.843 152.5 173.836 152.636 173.826 155.883 173.567 158.491 170.508 160.4 167.869 163.95 162.966 164.096 157.437 160.742 155 160.378 154.751 159.984 154.549 159.57 154.397 159.358 153.571 158.821 150.694 158.315 141.592 157.554 130.944 156.188 120.348 154.225 109.855 156.228 107.693 156.911 104.62 156.011 101.813 155.112 99.007 152.77 96.902 149.884 96.307 L149.78 87.774 C149.78 86.274 149.702 84.917 149.651 83.51 152.95 80.243 154.733 75.746 154.57 71.106 154.57 52.396 145.99 44.852 145.431 44.383 142.846 41.637 137.932 39.63 137.363 39.407 136.334 38.997 135.158 39.315 134.477 40.188 L132.324 42.934 C129.645 41.316 126.756 40.072 123.74 39.236 111.162 35.373 76.268 24.057 68.291 21.467 68.208 20.629 67.706 19.891 66.958 19.505 L50.556 11.199 11.43 0.281 C9.282 -0.275 7.003 0.001 5.048 1.052 2.76 2.439 1.148 4.711 0.595 7.329 -1.543 15.225 2.578 18.765 5.102 19.558 L44.179 32.949 61.992 35.762 C62.121 35.783 62.252 35.794 62.382 35.794 63.211 35.759 63.964 35.301 64.377 34.581 71.899 37.221 97.052 46.144 113.383 53.093 129.836 60.094 130.089 75.192 130.006 77.811 L123.662 81.314 C122.897 81.736 122.406 82.526 122.368 83.399 L120.625 126.643 123.284 156.28 C120.787 157.631 116.289 160.757 116.289 165.794 L116.289 172.044 C116.289 172.937 116.765 173.762 117.539 174.209 118.312 174.655 119.265 174.655 120.039 174.209 120.812 173.762 121.289 172.937 121.289 172.044 L121.289 165.794 C121.289 164.201 122.506 162.868 123.788 161.889 L125.529 181.289 C125.516 181.59 125.503 181.889 125.491 182.19 L121.425 181.458 C120.717 181.33 119.989 181.513 119.426 181.961 118.863 182.409 118.52 183.078 118.486 183.797 L114.804 259.006 C114.747 260.122 115.439 261.14 116.499 261.497 L122.094 263.393 Q121.843 269.516 121.596 275.593 L117.485 275.593 C116.375 275.593 115.398 276.325 115.087 277.39 L111.132 290.925 C111.062 291.161 111.028 291.407 111.03 291.653 111.03 291.868 111.23 313.284 111.03 330.974 110.825 348.572 108.149 375.066 108.125 375.33 108.052 376.033 108.281 376.734 108.755 377.259 109.229 377.784 109.903 378.084 110.61 378.084 L117.666 378.084 C117.587 380.39 117.514 382.603 117.443 384.754 L113.53 384.754 C112.21 384.754 111.118 385.78 111.035 387.097 111.025 387.278 110.141 401.355 109.751 413.836 L100.493 417.649 C99.861 417.909 99.363 418.416 99.115 419.052 98.867 419.689 98.89 420.399 99.179 421.018 104.083 432.025 108.357 443.301 111.982 454.793 112.222 455.534 112.792 456.122 113.525 456.384 113.794 456.477 114.076 456.525 114.36 456.526 114.846 456.527 115.322 456.384 115.727 456.116 L123.858 450.795 C130.847 465.882 144.555 479.959 171.445 479.959 219.59 479.959 220.63 434.265 220.971 419.246 L221.03 417.127 C222.49 373.103 225.288 337.19 228.911 316.004 230.908 304.295 234.902 296.375 240.449 293.098 243.252 291.384 246.643 290.918 249.804 291.814 L249.835 291.731 C252.216 292.726 254.744 293.328 257.319 293.513 258.862 293.513 259.995 293.098 260.59 292.166 262.089 289.812 261.035 286.712 251.162 278.528 Z M109.57 423.709 L109.57 432.976 C107.509 427.644 105.81 423.64 104.78 421.287 L109.614 419.299 C109.585 420.852 109.57 422.332 109.57 423.709 Z M187.504 334.646 C195.773 334.646 202.475 341.349 202.475 349.617 202.475 357.885 195.773 364.588 187.504 364.588 179.236 364.588 172.534 357.885 172.534 349.617 172.542 341.352 179.24 334.654 187.505 334.646 Z M173.747 364.026 C173.867 367.763 173.991 371.441 174.119 375.029 172.721 376.026 171.471 377.214 170.405 378.56 L170.405 359.773 C171.321 361.335 172.446 362.766 173.747 364.026 Z M134.876 80.831 L144.112 75.731 C144.571 79.739 144.794 83.769 144.78 87.803 L144.889 96.835 C141.877 98.154 139.946 101.147 139.985 104.436 140.025 107.724 142.027 110.67 145.071 111.917 L145.731 166.079 C145.698 166.516 145.703 166.955 145.748 167.391 L145.992 187.453 C141.728 188.939 138.891 192.984 138.946 197.499 139 202.014 141.935 205.989 146.234 207.37 L146.263 209.688 C141.114 211.131 137.577 215.855 137.642 221.202 137.707 226.549 141.357 231.185 146.54 232.503 L146.554 233.613 C141.259 234.961 137.576 239.759 137.642 245.223 137.708 250.686 141.507 255.394 146.833 256.613 L146.888 261.012 C141.428 262.245 137.574 267.127 137.642 272.724 137.71 278.32 141.681 283.108 147.168 284.208 L147.177 284.954 126.219 284.954 C129.747 197.683 134.147 97.376 134.876 80.831 Z M150.114 115.389 C151.638 124.155 152.71 132.994 153.325 141.87 153.471 146.124 153.865 150.366 154.504 154.574 154.384 154.622 154.266 154.637 154.145 154.69 152.843 155.293 151.652 156.112 150.623 157.113 Z M150.976 401.775 C147.283 401.775 143.954 399.55 142.54 396.138 141.127 392.726 141.908 388.799 144.52 386.188 147.131 383.576 151.058 382.795 154.47 384.208 157.882 385.622 160.107 388.951 160.107 392.644 160.101 397.684 156.017 401.769 150.976 401.775 Z M149.516 265.696 C152.297 265.696 154.804 267.371 155.868 269.94 156.932 272.509 156.344 275.466 154.377 277.432 152.411 279.399 149.454 279.987 146.885 278.923 144.316 277.858 142.641 275.352 142.641 272.571 142.647 268.776 145.721 265.701 149.516 265.696 Z M149.516 293.196 C152.297 293.196 154.804 294.871 155.868 297.44 156.932 300.009 156.344 302.966 154.377 304.932 152.411 306.899 149.454 307.487 146.885 306.423 144.316 305.358 142.641 302.852 142.641 300.071 142.647 296.276 145.721 293.201 149.516 293.196 Z M149.516 317.986 C152.297 317.986 154.804 319.661 155.868 322.23 156.932 324.799 156.344 327.756 154.377 329.722 152.411 331.689 149.454 332.277 146.885 331.213 144.316 330.148 142.641 327.642 142.641 324.861 142.647 321.066 145.721 317.991 149.516 317.986 Z M150.976 350.628 C155.496 350.628 159.16 354.291 159.16 358.811 159.16 363.331 155.496 366.995 150.976 366.995 146.456 366.995 142.793 363.331 142.793 358.811 142.798 354.294 146.459 350.633 150.976 350.628 Z M164.16 358.811 C164.142 352.298 159.365 346.777 152.922 345.824 L152.843 339.334 165.405 339.334 165.405 370.584 156.791 370.584 C161.287 368.382 164.144 363.818 164.16 358.811 Z M165.405 334.334 L156.601 334.334 C160.264 331.63 162.044 327.059 161.174 322.59 160.303 318.121 156.938 314.552 152.528 313.421 L152.504 311.518 C157.123 310.341 160.58 306.501 161.268 301.785 161.955 297.068 159.739 292.401 155.648 289.954 L165.405 289.954 Z M165.405 284.954 L152.178 284.954 152.168 284.123 C157.616 282.88 161.458 278.003 161.39 272.416 161.323 266.828 157.364 262.046 151.887 260.936 L151.866 259.231 165.405 259.231 Z M149.516 251.946 C145.719 251.947 142.639 248.869 142.639 245.071 142.638 241.273 145.716 238.194 149.514 238.193 153.311 238.193 156.39 241.271 156.391 245.068 156.387 248.864 153.312 251.94 149.516 251.946 Z M126.018 289.954 L143.384 289.954 C139.137 292.498 136.927 297.421 137.847 302.286 138.767 307.15 142.623 310.925 147.506 311.743 L147.524 313.187 C141.767 314.147 137.571 319.162 137.642 324.997 137.713 330.833 142.03 335.744 147.809 336.563 L147.923 346.02 C141.928 347.437 137.719 352.824 137.793 358.985 137.868 365.145 142.207 370.428 148.235 371.699 L148.32 378.782 C141.6 380.053 136.762 385.966 136.846 392.805 136.931 399.644 141.912 405.435 148.662 406.541 L148.74 412.727 C148.734 412.821 148.717 413.411 148.722 414.202 139.724 415.052 130.665 415.043 121.669 414.174 121.842 397.557 123.722 346.986 126.018 289.954 Z M153.842 416.514 C153.835 416.434 153.828 416.361 153.822 416.283 154.533 415.627 155.486 415.299 156.45 415.379 157.453 415.278 158.448 415.641 159.15 416.365 158.45 417.093 157.454 417.458 156.45 417.356 155.505 417.419 154.572 417.118 153.842 416.514 Z M156.45 422.356 C160.771 422.356 164.16 419.724 164.16 416.365 164.16 413.01 160.771 410.379 156.45 410.379 155.523 410.381 154.6 410.514 153.71 410.773 L153.66 406.504 C160.367 405.22 165.189 399.313 165.106 392.485 165.022 385.656 160.057 379.87 153.32 378.75 L153.282 375.584 165.405 375.584 165.405 422.654 C165.404 423.317 165.668 423.953 166.137 424.422 166.606 424.891 167.242 425.154 167.905 425.154 L174.297 425.154 C173.845 426.452 173.16 427.657 172.275 428.709 170.74 430.408 168.522 431.326 166.235 431.209 163.194 431.365 160.234 430.201 158.115 428.015 156.645 426.353 155.569 424.38 154.969 422.243 155.459 422.317 155.954 422.354 156.45 422.356 Z M175.625 412.542 C175.868 415.076 175.826 417.629 175.502 420.154 L170.405 420.154 170.405 401.391 C171.776 403.086 173.44 404.521 175.318 405.628 Z M171.269 389.973 C171.269 382.674 177.188 376.755 184.489 376.755 191.791 376.755 197.709 382.674 197.709 389.976 197.709 397.277 191.791 403.196 184.489 403.196 177.188 403.189 171.273 397.272 171.269 389.973 Z M161.354 221.419 L165.405 221.419 165.405 254.231 156.98 254.231 C160.604 251.322 162.182 246.555 161.01 242.058 159.838 237.561 156.135 234.171 151.552 233.399 L151.543 232.722 C157.08 231.756 161.177 227.036 161.354 221.419 Z M156.391 221.052 C156.391 223.833 154.716 226.34 152.147 227.404 149.578 228.468 146.621 227.88 144.655 225.914 142.689 223.948 142.1 220.99 143.164 218.421 144.229 215.852 146.736 214.177 149.516 214.177 153.311 214.182 156.386 217.257 156.391 221.052 Z M155.087 197.373 C155.088 199.627 153.731 201.659 151.649 202.522 149.568 203.385 147.171 202.909 145.577 201.316 143.983 199.722 143.507 197.326 144.369 195.244 145.231 193.162 147.263 191.804 149.517 191.804 152.591 191.808 155.082 194.299 155.087 197.373 Z M156.347 164.939 C153.798 168.46 152.558 168.816 152.241 168.84 152.163 168.858 151.953 168.86 151.513 168.423 151.109 168.06 150.839 167.572 150.744 167.038 L150.736 166.35 C151.023 164.849 151.693 163.449 152.68 162.283 L152.68 162.28 C153.564 160.997 154.76 159.96 156.157 159.268 156.544 159.082 156.964 158.976 157.392 158.955 157.537 158.944 157.682 158.978 157.807 159.05 158.339 159.436 158.491 161.98 156.347 164.939 Z M151.401 104.336 C151.401 106.108 149.965 107.544 148.193 107.544 146.421 107.544 144.985 106.108 144.985 104.336 144.985 102.564 146.421 101.128 148.193 101.128 149.964 101.13 151.399 102.565 151.401 104.336 Z M149.033 75.058 C147.732 64.392 144.831 56.945 141.349 51.753 L143.581 49.784 C145.721 52.564 149.57 59.187 149.57 71.106 149.577 72.442 149.396 73.772 149.033 75.058 Z M137.211 44.805 C138.15 45.259 139.061 45.767 139.941 46.326 L138.221 47.843 C137.589 47.161 136.955 46.528 136.313 45.951 Z M6.601 14.785 C6.572 14.778 4.008 13.85 5.419 8.633 6.25 5.579 7.91 4.966 9.111 4.966 9.431 4.966 9.749 5.008 10.058 5.088 L45.867 15.033 C43.826 18.737 42.6 22.833 42.268 27.048 L6.689 14.817 C6.66 14.805 6.63 14.795 6.601 14.785 Z M60.61 30.488 L47.182 28.398 C47.334 24.301 48.518 20.308 50.626 16.792 L62.832 23.013 Z M115.336 48.494 C98.863 41.482 73.557 32.504 66.014 29.855 L67.063 26.326 C75.717 29.136 109.849 40.201 122.275 44.016 L122.768 44.165 C128.037 45.495 132.712 48.543 136.056 52.826 136.097 52.881 136.11 52.948 136.157 53.001 136.169 53.015 136.188 53.019 136.201 53.033 139.132 56.852 141.756 62.373 143.308 70.468 L134.881 75.12 C133.989 63.24 126.404 52.906 115.337 48.494 Z M127.309 85.01 L129.748 83.663 C129.321 93.377 128.362 115.277 127.146 143.512 L125.615 126.521 Z M119.887 257.366 L123.339 186.883 125.276 187.232 C124.316 209.855 123.297 234.134 122.308 258.186 Z M113.364 373.084 C114.057 365.779 115.859 345.481 116.03 331.033 116.22 314.573 116.059 294.905 116.035 291.975 L119.36 280.593 121.393 280.593 C119.99 315.196 118.713 347.997 117.839 373.084 Z M114.57 423.709 C114.57 413.084 115.517 395.965 115.883 389.754 L117.282 389.754 C116.885 402.337 116.655 411.672 116.655 416.419 116.703 423.938 117.677 431.425 119.554 438.708 L114.57 438.709 Z M115.722 450.144 Q114.609 446.782 113.525 443.709 L121.039 443.709 C121.305 444.506 121.594 445.306 121.894 446.107 Z M238.032 288.718 C231.01 292.791 226.284 301.687 223.979 315.164 220.322 336.565 217.5 372.717 216.03 416.961 L215.976 419.133 C215.629 434.402 214.702 474.959 171.445 474.959 146.948 474.959 134.489 461.924 128.153 447.984 L135.312 443.298 C136.238 442.694 136.657 441.553 136.342 440.493 136.026 439.433 135.051 438.707 133.945 438.709 L124.769 438.709 C122.999 432.348 121.974 425.803 121.715 419.205 124.712 419.485 129.787 419.851 135.835 419.851 140.275 419.838 144.711 419.597 149.126 419.129 149.709 423.013 151.101 427.863 154.462 431.433 157.524 434.634 161.809 436.372 166.235 436.209 169.354 436.281 172.391 435.199 174.761 433.169 173.981 435.137 173.575 437.232 173.564 439.348 173.506 447.563 179.234 454.685 187.27 456.39 195.306 458.094 203.432 453.911 206.714 446.381 209.996 438.85 207.529 430.05 200.809 425.324 194.09 420.598 184.974 421.25 178.996 426.885 181.492 420.236 180.643 412.422 180.605 412.136 L180.414 407.699 C187.941 409.555 195.819 406.45 200.055 399.957 204.292 393.465 203.961 385.003 199.229 378.861 194.498 372.72 186.401 370.24 179.043 372.68 178.983 370.979 178.924 369.277 178.867 367.542 181.553 368.871 184.507 369.57 187.504 369.588 194.639 369.588 201.232 365.781 204.8 359.602 208.367 353.423 208.367 345.81 204.8 339.632 201.232 333.453 194.639 329.646 187.504 329.646 184.116 329.669 180.79 330.564 177.848 332.246 177.834 329.379 177.853 326.766 177.876 324.221 L177.905 320.178 C178.074 301.857 182.072 283.773 189.643 267.087 189.975 266.336 190.239 265.73 190.424 265.281 191.682 262.381 192.118 259.191 191.687 256.059 199.615 262.354 207.879 268.211 216.445 273.606 223.27 277.959 232.303 283.427 240.481 287.549 239.636 287.875 238.817 288.266 238.032 288.718 Z M178.564 439.348 C178.564 434.426 181.53 429.987 186.08 428.102 190.63 426.218 195.866 427.259 199.349 430.741 202.831 434.224 203.872 439.46 201.988 444.01 200.103 448.56 195.664 451.526 190.739 451.526 184.015 451.52 178.568 446.07 178.564 439.348 Z M251.498 287.127 L251.504 287.112 C251.488 287.106 251.387 287.075 251.333 287.057 244.704 284.346 233.345 278.453 219.13 269.387 203.607 259.494 192.97 251.101 188.232 246.399 188.086 246.127 187.989 245.886 187.832 245.608 193.849 247.697 206.309 253.898 222.446 264.187 239.106 274.812 250.224 283.753 254.365 288.201 253.555 287.937 252.575 287.565 251.498 287.127 Z" fill="#000000" fill-opacity="1" stroke="none"/>
 <path id="Path-1" d="M155.356 436.848 C148.408 436.848 142.145 441.033 139.486 447.452 136.827 453.871 138.297 461.26 143.21 466.172 148.122 471.085 155.511 472.555 161.93 469.896 168.349 467.237 172.534 460.974 172.534 454.026 172.524 444.544 164.839 436.859 155.357 436.848 Z M155.356 466.204 C150.431 466.204 145.99 463.237 144.105 458.686 142.22 454.136 143.262 448.898 146.745 445.415 150.228 441.932 155.466 440.89 160.016 442.775 164.567 444.66 167.534 449.101 167.534 454.026 167.526 460.748 162.079 466.195 155.356 466.204 Z" fill="#000000" fill-opacity="1" stroke="none"/>
 <path id="Path-2" d="M155.358 459.148 C155.358 461.417 153.519 463.255 151.251 463.255 148.982 463.255 147.143 461.417 147.143 459.148 147.143 456.88 148.982 455.041 151.251 455.041 153.519 455.041 155.358 456.88 155.358 459.148 Z" fill="#000000" fill-opacity="1" stroke="none"/>
 <path id="Path-3" d="M200.989 349.616 C200.989 351.884 199.15 353.723 196.882 353.723 194.614 353.723 192.775 351.884 192.775 349.616 192.775 347.348 194.614 345.509 196.882 345.509 199.15 345.509 200.989 347.348 200.989 349.616 Z" fill="#000000" fill-opacity="1" stroke="none"/>
 <path id="Path-4" d="M191.994 394.082 C193.655 394.083 195.152 393.082 195.788 391.547 196.424 390.012 196.073 388.246 194.898 387.071 193.724 385.896 191.957 385.545 190.422 386.181 188.887 386.816 187.887 388.314 187.887 389.975 187.887 391.065 188.319 392.109 189.09 392.88 189.86 393.65 190.905 394.082 191.994 394.082 Z" fill="#000000" fill-opacity="1" stroke="none"/>
</svg>
