<?xml version="1.0" encoding="UTF-8"?>
<svg width="480px" height="262px" viewBox="0 0 480 262" xmlns="http://www.w3.org/2000/svg" xmlns:xlink="http://www.w3.org/1999/xlink" version="1.1">
 <!-- Generated by Pixelmator Pro 2.0.8 -->
 <path id="Path" d="M278.528 10.838 C271.837 19.144 265.64 27.836 259.968 36.869 257.737 40.36 238.228 71.224 239.912 78.778 240.089 79.695 240.63 80.502 241.411 81.014 243.102 82.091 245.213 81.791 249.284 77.909 256.176 74.344 260.287 74.936 263.386 76.205 L265.076 76.932 C282.388 84.784 301.15 88.927 320.159 89.095 L324.177 89.124 C327.83 89.156 331.596 89.184 336.112 89.113 337.138 90.055 338.261 90.887 339.461 91.595 L218.919 91.595 C218.255 91.595 217.619 91.858 217.15 92.327 216.682 92.796 216.418 93.432 216.419 94.095 L216.419 101.552 C212.628 103.18 209.953 106.659 209.354 110.741 L207.77 110.76 C206.94 105.613 202.466 101.85 197.253 101.913 192.039 101.977 187.658 105.847 186.953 111.013 L173.637 111.176 C173.763 110.725 173.832 110.261 173.843 109.793 173.843 109.647 173.836 109.5 173.826 109.364 173.567 106.117 170.508 103.509 167.869 101.6 162.966 98.05 157.437 97.904 155 101.258 154.751 101.622 154.549 102.016 154.397 102.43 153.571 102.642 150.694 103.179 141.592 103.685 130.944 104.446 120.348 105.812 109.855 107.775 107.693 105.772 104.62 105.089 101.813 105.989 99.007 106.888 96.902 109.23 96.307 112.116 L87.774 112.22 C86.274 112.22 84.917 112.298 83.51 112.349 80.243 109.05 75.746 107.267 71.106 107.43 52.396 107.43 44.852 116.01 44.383 116.569 41.637 119.154 39.63 124.068 39.407 124.637 38.997 125.666 39.315 126.842 40.188 127.523 L42.934 129.676 C41.316 132.355 40.072 135.244 39.236 138.26 35.373 150.838 24.057 185.732 21.467 193.709 20.629 193.792 19.891 194.294 19.505 195.042 L11.199 211.444 0.281 250.57 C-0.275 252.718 0.001 254.997 1.052 256.952 2.439 259.24 4.711 260.852 7.329 261.405 15.225 263.543 18.765 259.422 19.558 256.898 L32.949 217.821 35.762 200.008 C35.783 199.879 35.794 199.748 35.794 199.618 35.759 198.789 35.301 198.036 34.581 197.623 37.221 190.101 46.144 164.948 53.093 148.617 60.094 132.164 75.192 131.911 77.811 131.994 L81.314 138.338 C81.736 139.103 82.526 139.594 83.399 139.632 L126.643 141.375 156.28 138.716 C157.631 141.213 160.757 145.711 165.794 145.711 L172.044 145.711 C172.937 145.711 173.762 145.235 174.209 144.461 174.655 143.688 174.655 142.735 174.209 141.961 173.762 141.188 172.937 140.711 172.044 140.711 L165.794 140.711 C164.201 140.711 162.868 139.494 161.889 138.212 L181.289 136.471 C181.59 136.484 181.889 136.497 182.19 136.509 L181.458 140.575 C181.33 141.283 181.513 142.011 181.961 142.574 182.409 143.137 183.078 143.48 183.797 143.514 L259.006 147.196 C260.122 147.253 261.14 146.561 261.497 145.501 L263.393 139.906 Q269.516 140.157 275.593 140.404 L275.593 144.515 C275.593 145.625 276.325 146.602 277.39 146.913 L290.925 150.868 C291.161 150.938 291.407 150.972 291.653 150.97 291.868 150.97 313.284 150.77 330.974 150.97 348.572 151.175 375.066 153.851 375.33 153.875 376.033 153.948 376.734 153.719 377.259 153.245 377.784 152.771 378.084 152.097 378.084 151.39 L378.084 144.334 C380.39 144.413 382.603 144.486 384.754 144.557 L384.754 148.47 C384.754 149.79 385.78 150.882 387.097 150.965 387.278 150.975 401.355 151.859 413.836 152.249 L417.649 161.507 C417.909 162.139 418.416 162.637 419.052 162.885 419.689 163.133 420.399 163.11 421.018 162.821 432.025 157.917 443.301 153.643 454.793 150.018 455.534 149.778 456.122 149.208 456.384 148.475 456.477 148.206 456.525 147.924 456.526 147.64 456.527 147.154 456.384 146.678 456.116 146.273 L450.795 138.142 C465.882 131.153 479.959 117.445 479.959 90.555 479.959 42.41 434.265 41.37 419.246 41.029 L417.127 40.97 C373.103 39.51 337.19 36.712 316.004 33.089 304.295 31.092 296.375 27.098 293.098 21.551 291.384 18.748 290.918 15.357 291.814 12.196 L291.731 12.165 C292.726 9.784 293.328 7.256 293.513 4.681 293.513 3.138 293.098 2.005 292.166 1.41 289.812 -0.089 286.712 0.965 278.528 10.838 Z M423.709 152.43 L432.976 152.43 C427.644 154.491 423.64 156.19 421.287 157.22 L419.299 152.386 C420.852 152.415 422.332 152.43 423.709 152.43 Z M334.646 74.496 C334.646 66.227 341.349 59.525 349.617 59.525 357.885 59.525 364.588 66.227 364.588 74.496 364.588 82.764 357.885 89.466 349.617 89.466 341.352 89.458 334.654 82.76 334.646 74.495 Z M364.026 88.253 C367.763 88.133 371.441 88.009 375.029 87.881 376.026 89.279 377.214 90.529 378.56 91.595 L359.773 91.595 C361.335 90.679 362.766 89.554 364.026 88.253 Z M80.831 127.124 L75.731 117.888 C79.739 117.429 83.769 117.206 87.803 117.22 L96.835 117.111 C98.154 120.123 101.147 122.054 104.436 122.015 107.724 121.975 110.67 119.973 111.917 116.929 L166.079 116.269 C166.516 116.302 166.955 116.297 167.391 116.252 L187.453 116.008 C188.939 120.272 192.984 123.109 197.499 123.054 202.014 123 205.989 120.065 207.37 115.766 L209.688 115.737 C211.131 120.886 215.855 124.423 221.202 124.358 226.549 124.293 231.185 120.643 232.503 115.46 L233.613 115.446 C234.961 120.741 239.759 124.424 245.223 124.358 250.686 124.292 255.394 120.493 256.613 115.167 L261.012 115.112 C262.245 120.572 267.127 124.426 272.724 124.358 278.32 124.29 283.108 120.319 284.208 114.832 L284.954 114.823 284.954 135.781 C197.683 132.253 97.376 127.853 80.831 127.124 Z M115.389 111.886 C124.155 110.362 132.994 109.29 141.87 108.675 146.124 108.529 150.366 108.135 154.574 107.496 154.622 107.616 154.637 107.734 154.69 107.855 155.293 109.157 156.112 110.348 157.113 111.377 Z M401.775 111.024 C401.775 114.717 399.55 118.046 396.138 119.46 392.726 120.873 388.799 120.092 386.188 117.48 383.576 114.869 382.795 110.942 384.208 107.53 385.622 104.118 388.951 101.893 392.644 101.893 397.684 101.899 401.769 105.983 401.775 111.024 Z M265.696 112.484 C265.696 109.703 267.371 107.196 269.94 106.132 272.509 105.068 275.466 105.656 277.432 107.623 279.399 109.589 279.987 112.546 278.923 115.115 277.858 117.684 275.352 119.359 272.571 119.359 268.776 119.353 265.701 116.279 265.696 112.484 Z M293.196 112.484 C293.196 109.703 294.871 107.196 297.44 106.132 300.009 105.068 302.966 105.656 304.932 107.623 306.899 109.589 307.487 112.546 306.423 115.115 305.358 117.684 302.852 119.359 300.071 119.359 296.276 119.353 293.201 116.279 293.196 112.484 Z M317.986 112.484 C317.986 109.703 319.661 107.196 322.23 106.132 324.799 105.068 327.756 105.656 329.722 107.623 331.689 109.589 332.277 112.546 331.213 115.115 330.148 117.684 327.642 119.359 324.861 119.359 321.066 119.353 317.991 116.279 317.986 112.484 Z M350.628 111.024 C350.628 106.504 354.291 102.84 358.811 102.84 363.331 102.84 366.995 106.504 366.995 111.024 366.995 115.544 363.331 119.207 358.811 119.207 354.294 119.202 350.633 115.541 350.628 111.024 Z M358.811 97.84 C352.298 97.858 346.777 102.635 345.824 109.078 L339.334 109.157 339.334 96.595 370.584 96.595 370.584 105.209 C368.382 100.713 363.818 97.856 358.811 97.84 Z M334.334 96.595 L334.334 105.399 C331.63 101.736 327.059 99.956 322.59 100.826 318.121 101.697 314.552 105.062 313.421 109.472 L311.518 109.496 C310.341 104.877 306.501 101.42 301.785 100.732 297.068 100.045 292.401 102.261 289.954 106.352 L289.954 96.595 Z M284.954 96.595 L284.954 109.822 284.123 109.832 C282.88 104.384 278.003 100.542 272.416 100.61 266.828 100.677 262.046 104.636 260.936 110.113 L259.231 110.134 259.231 96.595 Z M251.946 112.484 C251.947 116.281 248.869 119.361 245.071 119.361 241.273 119.362 238.194 116.284 238.193 112.486 238.193 108.689 241.271 105.61 245.068 105.609 248.864 105.613 251.94 108.688 251.946 112.484 Z M289.954 135.982 L289.954 118.616 C292.498 122.863 297.421 125.073 302.286 124.153 307.15 123.233 310.925 119.377 311.743 114.494 L313.187 114.476 C314.147 120.233 319.162 124.429 324.997 124.358 330.833 124.287 335.744 119.97 336.563 114.191 L346.02 114.077 C347.437 120.072 352.824 124.281 358.985 124.207 365.145 124.132 370.428 119.793 371.699 113.765 L378.782 113.68 C380.053 120.4 385.966 125.238 392.805 125.154 399.644 125.069 405.435 120.088 406.541 113.338 L412.727 113.26 C412.821 113.266 413.411 113.283 414.202 113.278 415.052 122.276 415.043 131.335 414.174 140.331 397.557 140.158 346.986 138.278 289.954 135.982 Z M416.514 108.158 C416.434 108.165 416.361 108.172 416.283 108.178 415.627 107.467 415.299 106.514 415.379 105.55 415.278 104.547 415.641 103.552 416.365 102.85 417.093 103.55 417.458 104.546 417.356 105.55 417.419 106.495 417.118 107.428 416.514 108.158 Z M422.356 105.55 C422.356 101.229 419.724 97.84 416.365 97.84 413.01 97.84 410.379 101.229 410.379 105.55 410.381 106.477 410.514 107.4 410.773 108.29 L406.504 108.34 C405.22 101.633 399.313 96.811 392.485 96.894 385.656 96.978 379.87 101.943 378.75 108.68 L375.584 108.718 375.584 96.595 422.654 96.595 C423.317 96.596 423.953 96.332 424.422 95.863 424.891 95.394 425.154 94.758 425.154 94.095 L425.154 87.703 C426.452 88.155 427.657 88.84 428.709 89.725 430.408 91.26 431.326 93.478 431.209 95.765 431.365 98.806 430.201 101.766 428.015 103.885 426.353 105.355 424.38 106.431 422.243 107.031 422.317 106.541 422.354 106.046 422.356 105.55 Z M412.542 86.375 C415.076 86.132 417.629 86.174 420.154 86.498 L420.154 91.595 401.391 91.595 C403.086 90.224 404.521 88.56 405.628 86.682 Z M389.973 90.731 C382.674 90.731 376.755 84.812 376.755 77.511 376.755 70.209 382.674 64.291 389.976 64.291 397.277 64.291 403.196 70.209 403.196 77.511 403.189 84.812 397.272 90.727 389.973 90.731 Z M221.419 100.646 L221.419 96.595 254.231 96.595 254.231 105.02 C251.322 101.396 246.555 99.818 242.058 100.99 237.561 102.162 234.171 105.865 233.399 110.448 L232.722 110.457 C231.756 104.92 227.036 100.823 221.419 100.646 Z M221.052 105.609 C223.833 105.609 226.34 107.284 227.404 109.853 228.468 112.422 227.88 115.379 225.914 117.345 223.948 119.311 220.99 119.9 218.421 118.836 215.852 117.771 214.177 115.264 214.177 112.484 214.182 108.689 217.257 105.614 221.052 105.609 Z M197.373 106.913 C199.627 106.912 201.659 108.269 202.522 110.351 203.385 112.432 202.909 114.829 201.316 116.423 199.722 118.017 197.326 118.493 195.244 117.631 193.162 116.769 191.804 114.737 191.804 112.483 191.808 109.409 194.299 106.918 197.373 106.913 Z M164.939 105.653 C168.46 108.202 168.816 109.442 168.84 109.759 168.858 109.837 168.86 110.047 168.423 110.487 168.06 110.891 167.572 111.161 167.038 111.256 L166.35 111.264 C164.849 110.977 163.449 110.307 162.283 109.32 L162.28 109.32 C160.997 108.436 159.96 107.24 159.268 105.843 159.082 105.456 158.976 105.036 158.955 104.608 158.944 104.463 158.978 104.318 159.05 104.193 159.436 103.661 161.98 103.509 164.939 105.653 Z M104.336 110.599 C106.108 110.599 107.544 112.035 107.544 113.807 107.544 115.579 106.108 117.015 104.336 117.015 102.564 117.015 101.128 115.579 101.128 113.807 101.13 112.036 102.565 110.601 104.336 110.599 Z M75.058 112.967 C64.392 114.268 56.945 117.169 51.753 120.651 L49.784 118.419 C52.564 116.279 59.187 112.43 71.106 112.43 72.442 112.423 73.772 112.604 75.058 112.967 Z M44.805 124.789 C45.259 123.85 45.767 122.939 46.326 122.059 L47.843 123.779 C47.161 124.411 46.528 125.045 45.951 125.687 Z M14.785 255.399 C14.778 255.428 13.85 257.992 8.633 256.581 5.579 255.75 4.966 254.09 4.966 252.889 4.966 252.569 5.008 252.251 5.088 251.942 L15.033 216.133 C18.737 218.174 22.833 219.4 27.048 219.732 L14.817 255.311 C14.805 255.34 14.795 255.37 14.785 255.399 Z M30.488 201.39 L28.398 214.818 C24.301 214.666 20.308 213.482 16.792 211.374 L23.013 199.168 Z M48.494 146.664 C41.482 163.137 32.504 188.443 29.855 195.986 L26.326 194.937 C29.136 186.283 40.201 152.151 44.016 139.725 L44.165 139.232 C45.495 133.963 48.543 129.288 52.826 125.944 52.881 125.903 52.948 125.89 53.001 125.843 53.015 125.831 53.019 125.812 53.033 125.799 56.852 122.868 62.373 120.244 70.468 118.692 L75.12 127.119 C63.24 128.011 52.906 135.596 48.494 146.663 Z M85.01 134.691 L83.663 132.252 C93.377 132.679 115.277 133.638 143.512 134.854 L126.521 136.385 Z M257.366 142.113 L186.883 138.661 187.232 136.724 C209.855 137.684 234.134 138.703 258.186 139.692 Z M373.084 148.636 C365.779 147.943 345.481 146.141 331.033 145.97 314.573 145.78 294.905 145.941 291.975 145.965 L280.593 142.64 280.593 140.607 C315.196 142.01 347.997 143.287 373.084 144.161 Z M423.709 147.43 C413.084 147.43 395.965 146.483 389.754 146.117 L389.754 144.718 C402.337 145.115 411.672 145.345 416.419 145.345 423.938 145.297 431.425 144.323 438.708 142.446 L438.709 147.43 Z M450.144 146.278 Q446.782 147.391 443.709 148.475 L443.709 140.961 C444.506 140.695 445.306 140.406 446.107 140.106 Z M288.718 23.968 C292.791 30.99 301.687 35.716 315.164 38.021 336.565 41.678 372.717 44.5 416.961 45.97 L419.133 46.024 C434.402 46.371 474.959 47.298 474.959 90.555 474.959 115.052 461.924 127.511 447.984 133.847 L443.298 126.688 C442.694 125.762 441.553 125.343 440.493 125.658 439.433 125.974 438.707 126.949 438.709 128.055 L438.709 137.231 C432.348 139.001 425.803 140.026 419.205 140.285 419.485 137.288 419.851 132.213 419.851 126.165 419.838 121.725 419.597 117.289 419.129 112.874 423.013 112.291 427.863 110.899 431.433 107.538 434.634 104.476 436.372 100.191 436.209 95.765 436.281 92.646 435.199 89.609 433.169 87.239 435.137 88.019 437.232 88.425 439.348 88.436 447.563 88.494 454.685 82.766 456.39 74.73 458.094 66.694 453.911 58.568 446.381 55.286 438.85 52.004 430.05 54.471 425.324 61.191 420.598 67.91 421.25 77.026 426.885 83.004 420.236 80.508 412.422 81.357 412.136 81.395 L407.699 81.586 C409.555 74.059 406.45 66.181 399.957 61.945 393.465 57.708 385.003 58.039 378.861 62.771 372.72 67.502 370.24 75.599 372.68 82.957 370.979 83.017 369.277 83.076 367.542 83.133 368.871 80.447 369.57 77.493 369.588 74.496 369.588 67.361 365.781 60.768 359.602 57.2 353.423 53.633 345.81 53.633 339.632 57.2 333.453 60.768 329.646 67.361 329.646 74.496 329.669 77.884 330.564 81.21 332.246 84.152 329.379 84.166 326.766 84.147 324.221 84.124 L320.178 84.095 C301.857 83.926 283.773 79.928 267.087 72.357 266.336 72.025 265.73 71.761 265.281 71.576 262.381 70.318 259.191 69.882 256.059 70.313 262.354 62.385 268.211 54.121 273.606 45.555 277.959 38.73 283.427 29.697 287.549 21.519 287.875 22.364 288.266 23.183 288.718 23.968 Z M439.348 83.436 C434.426 83.436 429.987 80.47 428.102 75.92 426.218 71.37 427.259 66.134 430.741 62.651 434.224 59.169 439.46 58.128 444.01 60.012 448.56 61.897 451.526 66.336 451.526 71.261 451.52 77.985 446.07 83.432 439.348 83.436 Z M287.127 10.502 L287.112 10.496 C287.106 10.512 287.075 10.613 287.057 10.667 284.346 17.296 278.453 28.655 269.387 42.87 259.494 58.393 251.101 69.03 246.399 73.768 246.127 73.914 245.886 74.011 245.608 74.168 247.697 68.151 253.898 55.691 264.187 39.554 274.812 22.894 283.753 11.776 288.201 7.635 287.937 8.445 287.565 9.425 287.127 10.502 Z" fill="#000000" fill-opacity="1" stroke="none"/>
 <path id="Path-1" d="M436.848 106.644 C436.848 113.592 441.033 119.855 447.452 122.514 453.871 125.173 461.26 123.703 466.172 118.79 471.085 113.878 472.555 106.489 469.896 100.07 467.237 93.651 460.974 89.466 454.026 89.466 444.544 89.476 436.859 97.161 436.848 106.643 Z M466.204 106.644 C466.204 111.569 463.237 116.01 458.686 117.895 454.136 119.78 448.898 118.738 445.415 115.255 441.932 111.772 440.89 106.534 442.775 101.984 444.66 97.433 449.101 94.466 454.026 94.466 460.748 94.474 466.195 99.921 466.204 106.644 Z" fill="#000000" fill-opacity="1" stroke="none"/>
 <path id="Path-2" d="M459.148 106.642 C461.417 106.642 463.255 108.481 463.255 110.749 463.255 113.018 461.417 114.857 459.148 114.857 456.88 114.857 455.041 113.018 455.041 110.749 455.041 108.481 456.88 106.642 459.148 106.642 Z" fill="#000000" fill-opacity="1" stroke="none"/>
 <path id="Path-3" d="M349.616 61.011 C351.884 61.011 353.723 62.85 353.723 65.118 353.723 67.386 351.884 69.225 349.616 69.225 347.348 69.225 345.509 67.386 345.509 65.118 345.509 62.85 347.348 61.011 349.616 61.011 Z" fill="#000000" fill-opacity="1" stroke="none"/>
 <path id="Path-4" d="M394.082 70.006 C394.083 68.345 393.082 66.848 391.547 66.212 390.012 65.576 388.246 65.927 387.071 67.102 385.896 68.276 385.545 70.043 386.181 71.578 386.816 73.113 388.314 74.113 389.975 74.113 391.065 74.113 392.109 73.681 392.88 72.91 393.65 72.14 394.082 71.095 394.082 70.006 Z" fill="#000000" fill-opacity="1" stroke="none"/>
</svg>
