<?xml version="1.0" encoding="UTF-8"?>
<svg viewBox="0 0 60000 75000" xmlns="http://www.w3.org/2000/svg" xmlns:xlink="http://www.w3.org/1999/xlink" version="1.1">
 <g id="group">
  <path id="Path" d="M40058.719 22675.492 C40260.32 22592.633 40490.938 22688.898 40573.797 22890.5 40656.66 23092.109 40560.398 23322.73 40358.789 23405.59 38390.641 24220.938 36691.391 24136.23 35104.578 23568.242 33554.258 23013.32 32135.029 22001.09 30674.76 20925.398 L7351.249 3744.336 C6491.289 3110.859 5639.049 2632.141 4819.549 2470.102 4045.839 2317.109 3287.659 2452.648 2560.879 3024.289 2364.309 3178.898 2188.699 3347.406 2034.149 3526.75 1447.419 4207.594 1137.379 5063.227 1113.219 5926.188 1089.109 6787.563 1350.619 7655.461 1906.919 8362.742 2053.089 8548.563 2218.039 8722.211 2401.74 8880.516 L14707.539 19485.531 14916.52 19186.727 C14444.369 18739.227 12981.289 17366.34 11230.85 15723.801 9610.159 14203.031 7744.819 12452.66 6180.979 10980.09 L6180.399 10980.699 C6160.129 10961.57 6139.989 10942.219 6119.989 10922.66 4269.289 9179.781 2855.129 7839.172 2797.399 7755.367 2680.869 7586.172 2583.229 7418.93 2502.589 7254.258 2120.459 6473.859 2143.159 5790.672 2356.159 5235.203 2566.599 4686.422 2964.509 4271.383 3338.419 4013.828 3442.809 3941.938 3548.019 3880.883 3648.719 3831.57 5107.669 3117.188 5914.749 3812.586 6825.249 4597.117 L6930.359 4687.328 C8867.849 6349.203 11400.479 8437.258 14130.449 10687.988 L14175.239 10724.93 14175.339 10724.82 14179.909 10728.77 C14824.399 11260.117 15479.669 11800.398 16140.289 12345.938 16249.059 12416.039 16358.739 12490.52 16469.109 12569.25 16882.369 12864.02 17260.318 13191.352 17590.469 13545.129 23188.609 18182.102 28885.83 23004.059 31451.5 25842.84 32256.59 26733.648 32918.09 27729.039 33356.438 28851.227 33797.07 29979.32 34012.719 31232.547 33923.188 32632.5 33909.527 32850.34 33721.84 33015.859 33504 33002.191 33286.16 32988.531 33120.648 32800.848 33134.309 32583.008 33164.711 32107.547 33156.711 31651.059 33114.09 31212.469 32771.871 32008.859 32540.369 32719.41 32435.58 33299.809 32318.559 33947.84 32350.439 34388.59 32558.59 34533.391 32913.438 34780.219 33755.23 34345.039 34829.32 33441.891 36019.438 32441.18 37415.77 30873.141 38736.148 28975 40054.188 27080.211 41038.23 25225.328 41563.711 23758.109 42037.09 22436.391 42152.988 21495.82 41799.199 21249.711 41580.277 21097.43 41126.879 21239.258 40522.109 21610.77 39984.75 21940.867 39365.738 22446.328 38705.531 23092.992 39141.23 23005.938 39591.41 22869.078 40058.719 22675.492 Z M17170.578 27913.789 C17003.768 27492 16907.428 27042.551 16813.879 26605.781 16776.168 26429.68 16738.889 26255.688 16705.998 26120.758 16645.158 25871.242 16554.918 25618.961 16420.527 25462.59 16337.128 25365.531 16221.548 25314.813 16060.958 25361.258 15608.358 25492.18 15257.998 25685.898 15008.068 25958.398 14762.678 26225.93 14605.568 26583.078 14534.148 27046.43 L14533.928 27046.41 C14509.058 27211 14571.938 27318.461 14675.918 27388.02 14842.028 27499.148 15098.948 27556.633 15352.258 27586 15957.588 27656.199 16441.578 27718.563 16933.629 27846.801 17012.758 27867.422 17091.578 27889.66 17170.578 27913.789 Z M17587.299 26441.828 C17754.348 27221.781 17931.617 28049.301 18550.447 28527.09 L22060.229 31236.859 24969.289 27513.699 16771.479 21092.48 16523.85 21439.641 C16274.669 21788.969 15973.438 21934.813 15639.849 21934.758 15345.179 21934.711 15051.448 21810.813 14764.438 21612.02 14738.459 21594.031 14713.389 21575.75 14689.389 21557.258 14466.559 21385.648 14285.658 21161.891 14201.749 20908.301 14120.599 20663.07 14126.358 20401.102 14260.339 20141.16 14252.799 20135.52 14245.398 20129.578 14238.158 20123.328 L1885.099 9477.59 C1659.379 9283.07 1459.479 9073.219 1285.109 8851.539 611.759 7995.453 295.189 6945.758 324.339 5904.531 353.439 4864.922 728.059 3832.859 1437.089 3010.109 1626.729 2790.031 1838.549 2586.156 2072.079 2402.469 3003.149 1670.156 3976.509 1496.922 4971.139 1693.586 5919.999 1881.219 6873.039 2410.656 7818.389 3107.047 L31141.908 20288.102 C32552.039 21326.871 33919.938 22303.422 35370.637 22822.68 36047.598 23064.992 36747.859 23208.391 37486.809 23212.25 38433.5 22195.43 39341.16 21409.051 40110.66 20936.352 40994.078 20393.648 41745.047 20248.191 42250.879 20600.039 42936.539 21077.008 42908.66 22350.633 42309.27 24024.18 41762 25552.23 40744.277 27473.789 39385.859 29426.633 38029.777 31376.078 36581.68 32998.289 35336.668 34045.152 35219.59 34143.59 35103.859 34236.922 34989.598 34325.211 L58754.148 52893.531 C59270.02 53296.609 59573.918 53872.543 59647.961 54475.711 59721.949 55078.531 59566.371 55710.641 59163.34 56226.449 L58182.531 57481.73 C57779.449 57997.602 57203.508 58301.52 56600.348 58375.543 55997.531 58449.531 55365.41 58293.953 54849.59 57890.922 L18133.801 29203.203 C18123.02 29194.781 18112.791 29185.91 18103.131 29176.633 17584.43 28889.961 17162.75 28722.25 16735.641 28610.93 16301.461 28497.77 15841.62 28438.953 15262.551 28371.789 14905.79 28330.43 14526.971 28238.121 14236.62 28043.871 13884.44 27808.258 13670.15 27455.102 13751.471 26927.32 L13751.471 26925.781 C13847.311 26304.031 14071.15 25810.59 14426.46 25423.211 14777.25 25040.77 15247.46 24775.102 15841.311 24603.32 16361.33 24452.898 16741.701 24624.391 17020.711 24949.039 17248.73 25214.371 17387.461 25583.398 17473.221 25935.148 17518.93 26122.672 17552.92 26281.289 17587.301 26441.828 Z M22684.768 31719.051 L22685.709 31719.77 22684.658 31719.188 22665.979 31743.09 26443.289 34694.469 29364.199 30956.148 25590.459 28000.23 Z M29985.348 31442.703 L27065.018 35180.27 55335.289 57269.102 C55677.547 57536.52 56099.828 57639.422 56504.438 57589.75 56908.719 57540.129 57293.348 57338.211 57560.719 56996.031 L58541.52 55740.75 C58808.938 55398.5 58911.828 54976.211 58862.168 54571.621 58812.547 54167.34 58610.629 53782.711 58268.449 53515.34 L34313.348 34798.129 C33391.84 35370.18 32612.908 35535.051 32106.908 35183.059 31617.449 34842.59 31484.668 34126.41 31659.068 33160.598 31679.379 33048.078 31703.869 32931.48 31732.389 32811.121 Z M17230.117 20449.48 L31968.527 31993.844 C32178.357 31367.551 32470.688 30672.121 32836.207 29933.672 32845.406 29915.031 32855.879 29897.441 32867.477 29880.953 32796.957 29626.992 32714.197 29379.75 32620.139 29138.93 32217.607 28108.41 31608.639 27192.672 30866.799 26371.859 28596.688 23860.094 23798.697 19739.203 18808.059 15581.992 19130.027 16655.5 19016.627 17817.57 18275.738 18972.871 18230.627 19043.211 18180.668 19116.852 18125.777 19193.813 Z M17046.219 14118.871 L16732.969 13859.551 C16851.588 14098.48 16954.688 14342.051 17038.559 14588.93 17436.398 15759.898 17410.068 16997.66 16591.117 18168.563 L15003.488 20438.523 C14998.468 20445.031 14994.108 20450.969 14990.438 20456.281 14940.188 20528.813 14932.978 20598.75 14953.508 20660.813 14985.198 20756.59 15066.958 20851.453 15171.988 20932.34 15185.818 20942.992 15199.518 20953.008 15213.008 20962.352 15376.228 21075.398 15523.358 21145.859 15639.848 21145.883 15717.428 21145.891 15797.808 21097.551 15880.378 20981.781 L17482.299 18735.961 C17525.059 18676 17567.857 18612.609 17610.598 18545.941 18247.299 17553.102 18317.777 16562.898 18004.639 15662.93 17813.277 15112.969 17480.588 14591.781 17046.219 14118.871 Z M13658.798 11321.781 L13629.268 11297.43 C11657.508 9671.801 9787.938 8130.398 8183.928 6784.57 7984.148 6665.18 7783.198 6574.008 7579.068 6512.563 7368.888 6449.297 7156.558 6417.203 6939.938 6417.844 6503.828 6419.133 6174.958 6502.781 5938.138 6646.234 5673.818 6806.344 5519.428 7053.492 5454.778 7347.75 5381.668 7680.578 5415.688 8072.508 5532.358 8476.664 5732.058 9168.375 6165.618 9880.461 6721.788 10405.27 L6721.218 10405.891 C8277.788 11869.352 10148.589 13624.813 11772.238 15148.383 13412.729 16687.742 14802.038 17991.41 15373.969 18532.703 L15944.559 17716.883 C16595.268 16786.531 16612.027 15790.789 16289.898 14842.621 15827.429 13481.371 14682.898 12205.801 13658.698 11321.891 Z M6818.808 5631.141 C6681.908 5514.492 6547.798 5399.852 6416.798 5287.5 L6308.608 5194.188 C5607.598 4590.172 4986.198 4054.773 3995.198 4540 3931.468 4571.211 3861.148 4612.422 3786.988 4663.5 3521.948 4846.063 3241.148 5137.008 3095.538 5516.734 2952.478 5889.797 2941.698 6357.742 3211.028 6907.773 3273.158 7034.648 3351.218 7167.641 3447.068 7306.789 3465.428 7333.438 3956.108 7800.297 4730.378 8531.234 4614.608 8058.773 4590.508 7594.297 4681.358 7180.68 4791.278 6680.359 5061.868 6255.25 5529.778 5971.813 5860.818 5771.281 6286.528 5648.641 6818.808 5631.141 Z" fill="#000000" fill-opacity="1" stroke="none"/>
 </g>
</svg>
