<?xml version="1.0" encoding="UTF-8"?>
<svg width="329px" height="97px" viewBox="0 0 329 97" xmlns="http://www.w3.org/2000/svg" xmlns:xlink="http://www.w3.org/1999/xlink" version="1.1">
 <!-- Generated by Pixelmator Pro 2.0.8 -->
 <path id="Path" d="M179.24 13.23 C179.7 12.439 180.713 12.17 181.504 12.629 182.296 13.088 182.565 14.101 182.106 14.893 177.64 22.638 171.768 26.7 165.034 28.867 158.456 30.983 151.145 31.243 143.534 31.396 L21.984 33.842 C17.503 33.932 13.442 34.518 10.301 36.074 7.334 37.543 5.157 39.932 4.2 43.693 3.941 44.71 3.787 45.72 3.732 46.712 3.519 50.478 4.675 54.118 6.801 57.052 8.923 59.98 12.012 62.2 15.672 63.132 16.633 63.377 17.626 63.533 18.642 63.59 L86.711 67.425 86.643 65.896 C83.927 65.614 75.548 64.785 65.523 63.794 56.241 62.876 45.558 61.819 36.588 60.916 L36.588 60.92 C36.471 60.908 36.355 60.895 36.238 60.881 25.623 59.812 17.489 58.965 17.083 58.834 16.262 58.569 15.51 58.262 14.82 57.92 11.553 56.299 9.882 53.968 9.171 51.574 8.468 49.21 8.732 46.811 9.318 44.998 9.481 44.492 9.675 44.02 9.884 43.598 12.914 37.491 17.378 37.742 22.414 38.025 L22.994 38.057 C33.691 38.634 47.459 39.109 62.299 39.621 L62.542 39.629 62.542 39.628 62.568 39.63 C66.071 39.751 69.633 39.873 73.227 40 73.768 39.955 74.323 39.923 74.892 39.903 77.021 39.827 79.116 39.951 81.119 40.284 111.605 41.405 142.895 42.888 158.691 45.776 163.648 46.683 168.395 48.305 172.723 50.919 177.073 53.547 180.995 57.167 184.276 62.055 184.787 62.815 184.586 63.846 183.826 64.357 183.066 64.868 182.035 64.667 181.524 63.907 180.41 62.247 179.216 60.748 177.953 59.397 178.85 62.923 179.896 65.879 181.031 68.079 182.298 70.535 183.531 71.92 184.594 71.87 186.406 71.784 188.095 68.184 189.361 62.432 190.764 56.059 191.402 47.27 190.944 37.577 190.486 27.901 189.019 19.212 187.017 12.985 185.214 7.376 183.195 3.95 181.388 4.035 180.27 4.088 179.124 5.719 178.061 8.502 177.116 10.974 176.348 14.239 175.804 18.079 177.032 16.675 178.18 15.069 179.24 13.23 Z M116.456 89.179 C114.823 88.202 113.353 86.952 111.925 85.738 111.349 85.248 110.78 84.764 110.326 84.399 109.485 83.725 108.54 83.116 107.693 82.939 107.167 82.829 106.653 82.956 106.237 83.521 105.066 85.114 104.395 86.654 104.26 88.2 104.127 89.718 104.517 91.308 105.464 93.033 L105.463 93.033 C105.801 93.645 106.285 93.842 106.809 93.807 107.646 93.752 108.648 93.287 109.566 92.737 111.76 91.423 113.531 90.393 115.496 89.562 115.812 89.428 116.131 89.301 116.456 89.179 Z M114.08 83.215 C116.63 85.384 119.335 87.685 122.616 87.693 L141.225 87.738 141.389 67.91 97.689 67.497 97.752 69.285 C97.816 71.085 97.186 72.341 96.076 73.193 95.095 73.946 93.8 74.285 92.337 74.357 92.204 74.364 92.074 74.367 91.947 74.367 90.767 74.365 89.593 74.083 88.665 73.454 87.768 72.845 87.117 71.958 86.899 70.751 86.859 70.751 86.819 70.75 86.779 70.748 L18.449 66.898 C17.201 66.828 15.999 66.641 14.852 66.349 10.422 65.221 6.685 62.536 4.12 58.997 1.559 55.462 0.167 51.069 0.424 46.518 0.492 45.301 0.676 44.081 0.983 42.873 2.21 38.055 5.007 34.99 8.82 33.102 12.457 31.3 16.983 30.626 21.91 30.527 L143.46 28.081 C150.809 27.933 157.858 27.686 164.014 25.705 166.886 24.781 169.584 23.468 172.053 21.592 172.604 15.787 173.615 10.849 174.967 7.309 176.52 3.244 178.647 0.84 181.23 0.718 184.732 0.552 187.895 4.863 190.179 11.965 192.264 18.45 193.789 27.447 194.261 37.419 194.731 47.374 194.059 56.476 192.592 63.143 192.454 63.77 192.307 64.376 192.153 64.962 L318.717 66.006 C321.465 66.028 323.949 67.168 325.737 68.986 327.525 70.803 328.623 73.305 328.6 76.052 L328.545 82.737 C328.522 85.485 327.383 87.969 325.564 89.757 323.747 91.545 321.246 92.643 318.499 92.62 L122.958 91.008 C122.901 91.008 122.844 91.004 122.788 90.998 120.329 91.37 118.497 91.89 116.791 92.611 115.056 93.345 113.376 94.325 111.277 95.582 109.984 96.356 108.487 97.017 107.024 97.113 105.249 97.229 103.633 96.602 102.555 94.637 L102.551 94.632 C101.28 92.318 100.763 90.103 100.956 87.906 101.145 85.736 102.031 83.65 103.568 81.56 104.915 79.73 106.619 79.328 108.378 79.695 109.815 79.995 111.22 80.869 112.405 81.82 113.036 82.327 113.555 82.769 114.08 83.215 Z M144.537 87.747 L144.542 87.747 144.537 87.747 144.536 87.875 164.653 88.04 164.817 68.131 144.7 67.941 Z M168.128 68.162 L167.964 88.068 318.525 89.309 C320.348 89.324 322.017 88.587 323.236 87.387 324.455 86.188 325.219 84.533 325.234 82.711 L325.289 76.025 C325.304 74.203 324.567 72.534 323.367 71.314 322.168 70.096 320.513 69.332 318.691 69.317 L191.111 68.265 C189.507 72.525 187.336 75.065 184.752 75.187 182.252 75.305 179.979 73.261 178.091 69.601 177.871 69.174 177.654 68.724 177.441 68.25 Z M97.571 64.184 L176.138 64.927 C175.235 62.306 174.43 59.244 173.759 55.852 173.741 55.766 173.731 55.681 173.728 55.596 172.844 54.931 171.936 54.32 171.008 53.759 167.033 51.358 162.665 49.867 158.098 49.032 144.121 46.476 117.617 45.027 90.379 43.95 94.195 46.7 96.788 50.857 97.276 56.597 97.306 56.946 97.328 57.319 97.342 57.715 Z M80.774 43.585 L79.069 43.523 C80.074 44.015 81.04 44.562 81.951 45.169 86.268 48.049 89.345 52.236 89.613 58.227 L90.132 69.84 C90.132 69.875 90.133 69.906 90.134 69.933 90.153 70.303 90.307 70.554 90.534 70.708 90.885 70.946 91.399 71.052 91.956 71.053 92.029 71.053 92.1 71.052 92.169 71.048 93.001 71.007 93.671 70.865 94.059 70.568 94.317 70.369 94.461 70.003 94.44 69.407 L94.03 57.837 C94.019 57.528 93.999 57.207 93.971 56.876 93.552 51.944 91.255 48.468 87.912 46.274 85.869 44.932 83.429 44.048 80.774 43.585 Z M62.349 42.936 L62.189 42.93 C51.47 42.561 41.307 42.21 32.528 41.832 31.558 41.945 30.656 42.156 29.82 42.473 28.958 42.8 28.17 43.236 27.45 43.792 26.002 44.911 25.121 46.03 24.7 47.113 24.23 48.322 24.348 49.539 24.885 50.684 25.492 51.978 26.608 53.196 28.029 54.242 30.462 56.034 33.726 57.296 36.918 57.62 L36.918 57.624 C45.84 58.515 56.555 59.575 65.853 60.495 75.249 61.424 83.206 62.211 86.493 62.55 L86.306 58.376 C86.094 53.616 83.604 50.259 80.108 47.927 75.088 44.579 68.018 43.26 62.349 42.936 Z M25.036 41.483 C24.282 41.445 23.543 41.406 22.819 41.367 L22.221 41.333 C18.343 41.115 14.906 40.922 12.849 45.07 12.716 45.337 12.588 45.654 12.471 46.014 12.056 47.299 11.865 48.985 12.352 50.621 12.829 52.228 13.99 53.813 16.292 54.955 16.823 55.219 17.423 55.462 18.098 55.68 18.227 55.722 21.054 56.021 25.499 56.474 23.906 55.198 22.639 53.714 21.884 52.105 20.97 50.159 20.784 48.052 21.617 45.912 22.206 44.399 23.309 42.902 25.036 41.483 Z" fill="#000000" fill-opacity="1" stroke="none"/>
</svg>
