<?xml version="1.0" encoding="UTF-8"?>
<svg width="483px" height="197px" viewBox="0 0 483 197" xmlns="http://www.w3.org/2000/svg" xmlns:xlink="http://www.w3.org/1999/xlink" version="1.1">
 <!-- Generated by Pixelmator Pro 2.0.8 -->
 <path id="Path" d="M200.515 192.661 C200.513 193.784 201.263 194.77 202.346 195.068 206.135 196.078 210.031 196.633 213.952 196.724 217.433 196.697 220.887 196.118 224.186 195.01 225.172 194.649 225.828 193.711 225.827 192.661 L225.827 185.137 227.39 185.137 227.39 192.661 C227.388 193.784 228.138 194.77 229.221 195.068 233.01 196.078 236.906 196.633 240.827 196.724 244.308 196.697 247.762 196.118 251.061 195.01 252.047 194.649 252.703 193.711 252.702 192.661 L252.702 185.137 278.796 185.137 C289.278 184.785 299.559 182.166 308.932 177.461 309.787 179.678 311.406 181.515 313.498 182.642 315.075 183.389 317.663 183.887 321.076 182.051 331.111 176.648 336.105 165.853 337.745 161.597 L377.824 161.597 377.855 161.596 377.858 161.597 377.862 161.596 C381.865 161.501 385.776 160.377 389.219 158.332 L391.491 160.791 C392.116 161.47 393.065 161.748 393.957 161.514 397.956 160.474 405.515 155.361 405.515 143.496 405.515 129.395 394.592 120.322 394.128 119.941 393.058 119.072 391.487 119.231 390.614 120.298 389.741 121.365 389.895 122.937 390.959 123.814 391.049 123.886 399.066 130.721 400.273 140.996 L396.981 140.996 C395.567 129.673 385.029 125.391 377.702 125.391 L339.531 125.391 C339.526 124.726 339.491 124.093 339.473 123.442 L357.702 123.442 C358.595 123.442 359.421 122.966 359.867 122.192 360.314 121.419 360.314 120.466 359.867 119.692 359.421 118.919 358.595 118.442 357.702 118.442 L339.2 118.442 C337.865 102.641 332.457 91.21 325.356 82.979 362.655 85.647 406.466 90.985 418.371 93.843 440.061 99.048 445.627 114.898 445.847 115.557 449.826 127.769 455.148 134.224 461.232 134.224 475.373 134.224 483 99.649 483 67.114 483 34.58 475.373 0 461.232 0 454.787 0 449.25 7.163 445.183 20.811 445.153 20.908 442.233 31.016 422.414 38.77 406.079 45.165 313.64 50.385 273.167 52.396 273.079 51.969 273.028 51.535 273.015 51.099 272.978 49.457 273.635 47.875 274.826 46.743 278.513 43.12 286.916 42.456 289.846 42.505 291.226 42.528 292.365 41.429 292.39 40.049 292.411 39.384 292.163 38.739 291.701 38.26 291.239 37.781 290.604 37.508 289.938 37.505 289.421 37.495 277.277 37.334 271.33 43.169 269.169 45.235 267.968 48.109 268.015 51.099 268.034 51.615 268.084 52.131 268.164 52.641 259.701 53.051 254.462 53.275 254.196 53.286 L252.702 53.326 252.702 49.536 C252.703 48.873 252.439 48.237 251.97 47.768 251.501 47.299 250.865 47.036 250.202 47.036 L242.546 47.036 242.546 32.974 249.421 32.974 C250.314 32.974 251.139 32.497 251.586 31.724 252.033 30.95 252.033 29.997 251.586 29.224 251.139 28.45 250.314 27.974 249.421 27.974 L230.671 27.974 C229.778 27.974 228.952 28.45 228.506 29.224 228.059 29.997 228.059 30.95 228.506 31.724 228.952 32.497 229.778 32.974 230.671 32.974 L237.546 32.974 237.546 47.036 229.89 47.036 C229.227 47.036 228.59 47.299 228.121 47.768 227.653 48.237 227.389 48.873 227.39 49.536 L227.39 53.984 225.827 54.025 225.827 49.536 C225.828 48.873 225.564 48.237 225.095 47.768 224.626 47.299 223.99 47.036 223.327 47.036 L215.671 47.036 215.671 32.974 222.546 32.974 C223.439 32.974 224.264 32.497 224.711 31.724 225.158 30.95 225.158 29.997 224.711 29.224 224.264 28.45 223.439 27.974 222.546 27.974 L203.796 27.974 C202.903 27.974 202.077 28.45 201.631 29.224 201.184 29.997 201.184 30.95 201.631 31.724 202.077 32.497 202.903 32.974 203.796 32.974 L210.671 32.974 210.671 47.036 203.015 47.036 C202.352 47.036 201.715 47.299 201.246 47.768 200.778 48.237 200.514 48.873 200.515 49.536 L200.515 54.688 198.952 54.728 198.952 49.536 C198.953 48.873 198.689 48.237 198.22 47.768 197.751 47.299 197.115 47.036 196.452 47.036 L188.796 47.036 188.796 32.974 195.671 32.974 C196.564 32.974 197.389 32.497 197.836 31.724 198.283 30.95 198.283 29.997 197.836 29.224 197.389 28.45 196.564 27.974 195.671 27.974 L176.921 27.974 C176.028 27.974 175.202 28.45 174.756 29.224 174.309 29.997 174.309 30.95 174.756 31.724 175.202 32.497 176.028 32.974 176.921 32.974 L183.796 32.974 183.796 47.036 176.14 47.036 C175.477 47.036 174.84 47.299 174.371 47.768 173.903 48.237 173.639 48.873 173.64 49.536 L173.64 56.458 112.111 61.641 50.93 61.641 50.93 62.974 31.252 62.974 C29.884 61.342 28.252 59.952 26.423 58.862 24.401 57.852 20.056 57.617 17.688 57.568 L15.095 54.649 C14.619 54.115 13.939 53.81 13.225 53.809 L4.89 53.809 C3.942 53.808 3.076 54.343 2.653 55.191 0.28 59.927 0.095 67.017 0.095 69.028 0.1 69.873 0.095 69.624 0.095 70.142 0.095 72.153 0.28 78.955 2.619 84.019 3.029 84.903 3.915 85.469 4.89 85.469 L13.225 85.469 C13.939 85.468 14.619 85.162 15.095 84.629 L17.688 81.709 C20.056 81.66 24.401 81.426 26.423 80.415 28.252 79.325 29.884 77.935 31.252 76.304 L49.865 76.304 C41.186 84.966 36.765 96.219 36.765 109.849 36.765 124.17 41.472 135.728 50.749 144.204 68.972 160.846 98.887 160.373 106.456 159.959 109.53 161.926 113.121 162.932 116.77 162.847 L136.263 162.847 C137.83 168.606 140.988 173.808 145.373 177.857 151.214 182.962 158.824 185.576 166.569 185.137 L173.64 185.137 173.64 192.661 C173.638 193.784 174.388 194.77 175.471 195.068 179.26 196.078 183.156 196.633 187.077 196.724 190.558 196.697 194.012 196.118 197.311 195.01 198.297 194.649 198.953 193.711 198.952 192.661 L198.952 185.137 200.515 185.137 Z M213.952 191.724 C211.112 191.664 208.285 191.319 205.515 190.693 L205.515 104.224 220.827 104.224 220.827 190.801 C218.582 191.39 216.273 191.7 213.952 191.724 Z M198.952 151.167 L200.515 151.167 200.515 169.141 198.952 169.141 Z M200.515 72.637 L198.952 72.637 198.952 66.641 200.515 66.641 Z M200.515 77.637 L200.515 103.599 198.952 103.599 198.952 77.637 Z M200.515 108.599 L200.515 110.61 198.952 110.61 198.952 108.599 Z M200.515 115.61 L200.515 121.597 198.952 121.597 198.952 115.61 Z M200.515 126.597 L200.515 134.38 198.952 134.38 198.952 126.597 Z M200.515 139.38 L200.515 146.167 198.952 146.167 198.952 139.38 Z M227.39 72.637 L225.827 72.637 225.827 66.641 227.39 66.641 Z M227.39 77.637 L227.39 103.599 225.827 103.599 225.827 77.637 Z M225.827 160.073 L227.39 160.073 227.39 169.141 225.827 169.141 Z M225.827 155.073 L225.827 148.286 227.39 148.286 227.39 155.073 Z M225.827 143.286 L225.827 126.597 227.39 126.597 227.39 143.286 Z M225.827 121.597 L225.827 115.606 227.39 115.606 227.39 121.597 Z M225.827 110.606 L225.827 108.599 227.39 108.599 227.39 110.606 Z M225.827 180.137 L225.827 174.141 227.39 174.141 227.39 180.137 Z M240.827 191.724 C237.987 191.664 235.16 191.319 232.39 190.693 L232.39 104.224 247.702 104.224 247.702 190.801 C245.457 191.39 243.148 191.7 240.827 191.724 Z M323.516 125.391 L289.006 125.391 C288.866 124.999 288.726 124.609 288.564 124.229 290.747 124.595 292.989 124.322 295.021 123.442 L323.403 123.442 C323.428 124.106 323.509 124.707 323.516 125.391 Z M252.702 169.141 L252.702 161.597 304.408 161.597 C296.508 166.048 287.693 168.629 278.64 169.141 Z M252.702 156.597 L252.702 155.133 265.329 155.117 C265.409 155.123 265.63 155.131 265.794 155.139 265.841 155.141 265.881 155.166 265.93 155.166 265.96 155.166 265.985 155.15 266.015 155.149 268.366 155.231 275.845 155.045 282.051 150.601 L316.521 150.601 C314.966 152.792 313.171 154.803 311.17 156.597 Z M290.056 119.38 C286.268 119.38 282.853 117.098 281.403 113.599 279.954 110.099 280.755 106.071 283.433 103.392 286.112 100.714 290.14 99.913 293.64 101.362 297.139 102.812 299.421 106.227 299.421 110.015 299.414 115.184 295.225 119.373 290.056 119.38 Z M285.388 133.389 C285.388 139.678 282.79 143.403 280.612 145.425 276.731 149.021 271.634 149.912 268.43 150.103 L268.43 144.082 C270.823 143.887 274.213 143.204 276.579 140.986 278.444 139.224 279.392 136.67 279.392 133.389 279.54 130.486 278.483 127.65 276.472 125.552 273.96 123.071 270.378 122.15 268.015 121.805 L268.015 115.767 C271.151 116.119 276.641 117.288 280.686 121.284 283.839 124.508 285.538 128.881 285.388 133.389 Z M263.015 115.601 L263.015 121.597 252.702 121.597 252.702 115.601 Z M265.559 126.597 C266.931 126.616 270.93 127.109 272.961 129.111 273.576 129.717 274.392 130.815 274.392 133.389 274.392 135.264 273.986 136.558 273.156 137.339 271.53 138.862 268.029 139.253 265.93 139.141 L252.702 139.141 252.702 126.597 Z M252.702 144.14 L263.43 144.136 263.43 150.124 252.702 150.134 Z M286.943 145.601 C287.816 144.287 288.528 142.872 289.061 141.387 L321.102 141.387 C320.638 142.822 320.091 144.229 319.463 145.601 Z M290.214 136.387 C290.329 135.392 290.387 134.391 290.388 133.389 290.36 132.385 290.272 131.384 290.124 130.391 L323.272 130.391 C323.119 132.405 322.839 134.408 322.433 136.387 Z M301.632 118.442 C303.436 116.002 304.413 113.049 304.421 110.015 304.483 104.535 301.422 99.498 296.531 97.027 291.639 94.557 285.768 95.084 281.395 98.386 277.022 101.688 274.907 107.19 275.944 112.571 272.607 111.317 269.079 110.651 265.515 110.601 L252.702 110.601 252.702 77.637 278.923 77.637 C280.639 77.669 318.729 78.862 323.113 118.442 Z M252.702 174.141 L263.43 174.141 263.43 180.137 252.702 180.137 Z M318.703 177.646 C316.804 178.672 315.93 178.262 315.642 178.125 314.534 177.391 313.72 176.29 313.344 175.016 317.476 172.509 321.268 169.482 324.628 166.008 L327.887 169.294 C325.486 172.727 322.348 175.581 318.703 177.646 Z M375.202 130.391 L375.202 136.387 338.738 136.387 C339.021 134.465 339.197 132.454 339.317 130.391 Z M349.802 145.601 L349.802 141.387 377.609 141.387 C380.036 141.431 381.267 142.139 381.267 143.491 381.267 143.999 381.267 145.542 377.858 145.601 Z M344.802 141.387 L344.802 145.601 336.632 145.601 C337.067 144.218 337.527 142.86 337.868 141.387 Z M375.358 150.601 L375.358 156.597 331.771 156.597 C332.911 154.666 333.924 152.663 334.802 150.601 Z M330.636 164.957 L327.916 162.214 C328.079 162.007 328.246 161.806 328.407 161.597 L332.317 161.597 C331.88 162.576 331.317 163.722 330.636 164.957 Z M393.996 156.138 L393.026 155.088 C395.255 152.535 396.655 149.364 397.041 145.996 L400.349 145.996 C399.58 152.373 395.979 155.112 393.996 156.138 Z M392.263 143.491 C392.364 146.804 391.116 150.016 388.806 152.393 386.466 154.555 383.516 155.943 380.358 156.367 L380.358 150.3 C384.043 149.503 386.267 147.05 386.267 143.491 386.267 139.948 383.995 137.498 380.202 136.693 L380.202 130.601 C385.751 131.457 392.263 135.178 392.263 143.491 Z M334.553 126.099 C334.553 167.979 298.015 179.761 278.747 180.137 L268.43 180.137 268.43 174.141 278.708 174.141 C280.744 174.087 328.557 172.271 328.557 126.099 328.557 124.549 328.508 123.05 328.426 121.588 328.499 121.38 328.543 121.163 328.557 120.942 328.551 120.564 328.458 120.192 328.284 119.856 324.624 74.029 280.946 72.669 278.967 72.637 L252.702 72.637 252.702 66.641 279.011 66.641 C281.009 66.737 283 66.948 284.974 67.273 287.115 67.871 289.296 68.319 291.499 68.613 296.986 69.979 302.274 72.045 307.233 74.761 325.363 84.814 334.553 102.09 334.553 126.099 Z M424.24 43.428 C446.755 34.614 449.909 22.524 450.002 22.139 453.767 9.502 458.273 5 461.232 5 469.147 5 478 31.562 478 67.114 478 102.661 469.147 129.224 461.232 129.224 457.678 129.224 453.708 123.535 450.598 113.999 450.344 113.223 444.045 94.863 419.533 88.979 406.758 85.912 359.704 80.188 320.001 77.601 308.499 67.546 294.649 63.813 286.359 62.441 282.893 61.486 278.676 59.874 275.918 57.276 317.867 55.181 407.379 50.024 424.24 43.428 Z M254.372 58.286 C255.476 58.239 261.159 57.994 269.787 57.577 270.698 59.123 271.873 60.498 273.257 61.641 L252.702 61.641 252.702 58.33 Z M247.702 52.036 L247.702 99.224 232.39 99.224 232.39 52.036 Z M227.39 58.988 L227.39 61.641 225.827 61.641 225.827 59.028 Z M220.827 52.036 L220.827 99.224 205.515 99.224 205.515 52.036 Z M200.515 59.691 L200.515 61.641 198.952 61.641 198.952 59.732 Z M193.952 52.036 L193.952 99.224 178.64 99.224 178.64 52.036 Z M173.64 169.142 L166.14 169.146 C164.704 169.229 159.733 169.229 156.042 165.933 155.054 165.034 154.204 163.994 153.52 162.847 L173.64 162.847 Z M151.478 157.847 C150.955 155.885 150.61 153.879 150.448 151.855 L173.64 151.851 173.64 157.847 Z M173.64 146.851 L150.208 146.855 C150.22 145.713 150.318 144.676 150.407 143.628 L173.64 143.628 Z M151.208 138.628 C151.697 136.499 152.551 134.47 153.732 132.632 L173.64 132.632 173.64 138.628 Z M159.956 127.632 C161.935 126.904 164.032 126.552 166.14 126.597 L173.64 126.597 173.64 127.632 Z M169.069 121.597 L169.069 115.615 173.64 115.615 173.64 121.597 Z M173.64 110.616 L166.755 110.62 C158.695 110.267 150.818 113.082 144.807 118.462 142.018 121.066 139.753 124.178 138.132 127.632 L117.155 127.632 117.088 127.632 117.086 127.632 C115.604 127.601 108.63 127.722 103.537 132.661 100.999 135.17 99.395 138.471 98.992 142.017 93.266 141.869 74.651 140.569 63.84 130.034 58.522 124.858 55.827 118.066 55.827 109.849 55.827 102.007 58.522 95.474 63.835 90.42 74.955 79.855 94.835 77.927 104.431 77.637 L173.64 77.637 Z M114.289 157.668 C111.786 157.311 109.447 156.216 107.57 154.521 105.832 152.891 103.767 149.839 103.767 144.541 103.66 141.447 104.837 138.447 107.019 136.25 109.122 134.341 111.767 133.135 114.587 132.8 L114.587 138.988 C112.142 139.725 109.763 141.62 109.763 144.863 109.657 146.858 110.425 148.799 111.867 150.181 112.565 150.795 113.393 151.244 114.289 151.491 Z M134.199 146.857 L116.836 146.87 C116.82 146.869 116.806 146.86 116.789 146.86 116.772 146.86 116.758 146.87 116.741 146.87 L116.55 146.87 C116.079 146.888 115.616 146.751 115.231 146.479 114.877 146.019 114.71 145.442 114.763 144.863 114.763 143.999 116.398 143.628 116.921 143.628 L134.317 143.628 C134.254 144.684 134.208 145.755 134.199 146.857 Z M119.587 138.628 L119.587 132.632 136.223 132.632 C135.614 134.594 135.147 136.598 134.826 138.628 Z M55.93 72.637 L55.93 66.641 173.64 66.641 173.64 72.637 110.063 72.637 C109.546 72.611 107.18 72.52 103.637 72.637 Z M173.64 61.473 L173.64 61.641 171.655 61.641 Z M5.1 69.575 C5.105 69.502 4.963 63.242 6.545 58.809 L10.004 58.809 C9.096 62.817 8.622 66.911 8.591 71.02 8.566 74.207 8.955 77.383 9.75 80.469 L6.579 80.469 C5.534 76.934 5.035 73.261 5.1 69.575 Z M16.555 76.719 C15.84 76.72 15.16 77.025 14.685 77.559 L14.282 78.012 C13.01 72.146 13.76 65.743 14.555 61.573 L14.685 61.719 C15.16 62.252 15.84 62.558 16.555 62.559 19.431 62.559 23.274 62.876 24.187 63.335 25.695 64.362 27.035 65.615 28.161 67.051 28.636 67.634 29.348 67.972 30.1 67.974 L50.93 67.974 50.93 71.304 30.1 71.304 C29.348 71.305 28.636 71.644 28.161 72.227 27.035 73.662 25.695 74.916 24.187 75.942 23.259 76.406 19.494 76.719 16.555 76.719 Z M54.108 140.498 C45.915 133.013 41.765 122.7 41.765 109.849 41.765 96.416 46.505 85.6 55.791 77.637 L75.856 77.637 C70.14 79.613 64.883 82.725 60.402 86.787 54.05 92.822 50.827 100.581 50.827 109.849 50.827 119.468 54.03 127.461 60.349 133.618 72.624 145.571 92.83 146.909 99.024 147.03 99.273 149.873 100.179 152.62 101.671 155.052 90.86 155.043 68.179 153.362 54.108 140.498 Z M119.289 157.855 L119.289 151.86 134.342 151.856 C134.478 153.865 134.722 155.866 135.075 157.848 Z M148.703 174.126 C142.385 168.477 139.182 159.468 139.182 147.349 139.182 136.157 142.219 127.671 148.205 122.134 152.589 118.21 158.192 115.917 164.069 115.642 L164.069 121.648 C159.65 121.907 155.451 123.669 152.17 126.641 147.531 131.006 145.178 137.974 145.178 147.349 145.178 157.676 147.712 165.181 152.707 169.658 155.835 172.318 159.75 173.878 163.85 174.099 L163.85 180.148 C158.264 179.915 152.924 177.792 148.703 174.126 Z M168.85 180.14 L168.85 174.141 173.64 174.141 173.64 180.138 Z M187.077 191.724 C184.237 191.664 181.41 191.319 178.64 190.693 L178.64 104.224 193.952 104.224 193.952 190.801 C191.707 191.39 189.398 191.7 187.077 191.724 Z M198.952 180.137 L198.952 174.141 200.515 174.141 200.515 180.137 Z" fill="#000000" fill-opacity="1" stroke="none"/>
</svg>
