<?xml version="1.0" encoding="UTF-8"?>
<svg viewBox="0 0 197 483" xmlns="http://www.w3.org/2000/svg" xmlns:xlink="http://www.w3.org/1999/xlink" version="1.1">
 <path id="Path" d="M192.661 282.485 C193.784 282.487 194.77 281.737 195.068 280.654 196.078 276.865 196.633 272.969 196.724 269.048 196.697 265.567 196.118 262.113 195.01 258.814 194.649 257.828 193.711 257.172 192.661 257.173 L185.137 257.173 185.137 255.61 192.661 255.61 C193.784 255.612 194.77 254.862 195.068 253.779 196.078 249.99 196.633 246.094 196.724 242.173 196.697 238.692 196.118 235.238 195.01 231.939 194.649 230.953 193.711 230.297 192.661 230.298 L185.137 230.298 185.137 204.204 C184.785 193.722 182.166 183.441 177.461 174.068 179.678 173.213 181.515 171.594 182.642 169.502 183.389 167.925 183.887 165.337 182.051 161.924 176.648 151.889 165.853 146.895 161.597 145.255 L161.597 105.176 161.596 105.145 161.597 105.142 161.596 105.138 C161.501 101.135 160.377 97.224 158.332 93.781 L160.791 91.509 C161.47 90.884 161.748 89.935 161.514 89.043 160.474 85.044 155.361 77.485 143.496 77.485 129.395 77.485 120.322 88.408 119.941 88.872 119.072 89.942 119.231 91.513 120.298 92.386 121.365 93.259 122.937 93.105 123.814 92.041 123.886 91.951 130.721 83.934 140.996 82.727 L140.996 86.019 C129.673 87.433 125.391 97.971 125.391 105.298 L125.391 143.469 C124.726 143.474 124.093 143.509 123.442 143.527 L123.442 125.298 C123.442 124.405 122.966 123.579 122.192 123.133 121.419 122.686 120.466 122.686 119.692 123.133 118.919 123.579 118.442 124.405 118.442 125.298 L118.442 143.8 C102.641 145.135 91.21 150.543 82.979 157.644 85.647 120.345 90.985 76.534 93.843 64.629 99.048 42.939 114.898 37.373 115.557 37.153 127.769 33.174 134.224 27.852 134.224 21.768 134.224 7.627 99.649 0 67.114 0 34.58 0 0 7.627 0 21.768 0 28.213 7.163 33.75 20.811 37.817 20.908 37.847 31.016 40.767 38.77 60.586 45.165 76.921 50.385 169.36 52.396 209.833 51.969 209.921 51.535 209.972 51.099 209.985 49.457 210.022 47.875 209.365 46.743 208.174 43.12 204.487 42.456 196.084 42.505 193.154 42.528 191.774 41.429 190.635 40.049 190.61 39.384 190.589 38.739 190.837 38.26 191.299 37.781 191.761 37.508 192.396 37.505 193.062 37.495 193.579 37.334 205.723 43.169 211.67 45.235 213.831 48.109 215.032 51.099 214.985 51.615 214.966 52.131 214.916 52.641 214.836 53.051 223.299 53.275 228.538 53.286 228.804 L53.326 230.298 49.536 230.298 C48.873 230.297 48.237 230.561 47.768 231.03 47.299 231.499 47.036 232.135 47.036 232.798 L47.036 240.454 32.974 240.454 32.974 233.579 C32.974 232.686 32.497 231.861 31.724 231.414 30.95 230.967 29.997 230.967 29.224 231.414 28.45 231.861 27.974 232.686 27.974 233.579 L27.974 252.329 C27.974 253.222 28.45 254.048 29.224 254.494 29.997 254.941 30.95 254.941 31.724 254.494 32.497 254.048 32.974 253.222 32.974 252.329 L32.974 245.454 47.036 245.454 47.036 253.11 C47.036 253.773 47.299 254.41 47.768 254.879 48.237 255.347 48.873 255.611 49.536 255.61 L53.984 255.61 54.025 257.173 49.536 257.173 C48.873 257.172 48.237 257.436 47.768 257.905 47.299 258.374 47.036 259.01 47.036 259.673 L47.036 267.329 32.974 267.329 32.974 260.454 C32.974 259.561 32.497 258.736 31.724 258.289 30.95 257.842 29.997 257.842 29.224 258.289 28.45 258.736 27.974 259.561 27.974 260.454 L27.974 279.204 C27.974 280.097 28.45 280.923 29.224 281.369 29.997 281.816 30.95 281.816 31.724 281.369 32.497 280.923 32.974 280.097 32.974 279.204 L32.974 272.329 47.036 272.329 47.036 279.985 C47.036 280.648 47.299 281.285 47.768 281.754 48.237 282.222 48.873 282.486 49.536 282.485 L54.688 282.485 54.728 284.048 49.536 284.048 C48.873 284.047 48.237 284.311 47.768 284.78 47.299 285.249 47.036 285.885 47.036 286.548 L47.036 294.204 32.974 294.204 32.974 287.329 C32.974 286.436 32.497 285.611 31.724 285.164 30.95 284.717 29.997 284.717 29.224 285.164 28.45 285.611 27.974 286.436 27.974 287.329 L27.974 306.079 C27.974 306.972 28.45 307.798 29.224 308.244 29.997 308.691 30.95 308.691 31.724 308.244 32.497 307.798 32.974 306.972 32.974 306.079 L32.974 299.204 47.036 299.204 47.036 306.86 C47.036 307.523 47.299 308.16 47.768 308.629 48.237 309.097 48.873 309.361 49.536 309.36 L56.458 309.36 61.641 370.889 61.641 432.07 62.974 432.07 62.974 451.748 C61.342 453.116 59.952 454.748 58.862 456.577 57.852 458.599 57.617 462.944 57.568 465.312 L54.649 467.905 C54.115 468.381 53.81 469.061 53.809 469.775 L53.809 478.11 C53.808 479.058 54.343 479.924 55.191 480.347 59.927 482.72 67.017 482.905 69.028 482.905 69.873 482.9 69.624 482.905 70.142 482.905 72.153 482.905 78.955 482.72 84.019 480.381 84.903 479.971 85.469 479.085 85.469 478.11 L85.469 469.775 C85.468 469.061 85.162 468.381 84.629 467.905 L81.709 465.312 C81.66 462.944 81.426 458.599 80.415 456.577 79.325 454.748 77.935 453.116 76.304 451.748 L76.304 433.135 C84.966 441.814 96.219 446.235 109.849 446.235 124.17 446.235 135.728 441.528 144.204 432.251 160.846 414.028 160.373 384.113 159.959 376.544 161.926 373.47 162.932 369.879 162.847 366.23 L162.847 346.737 C168.606 345.17 173.808 342.012 177.857 337.627 182.962 331.786 185.576 324.176 185.137 316.431 L185.137 309.36 192.661 309.36 C193.784 309.362 194.77 308.612 195.068 307.529 196.078 303.74 196.633 299.844 196.724 295.923 196.697 292.442 196.118 288.988 195.01 285.689 194.649 284.703 193.711 284.047 192.661 284.048 L185.137 284.048 185.137 282.485 Z M191.724 269.048 C191.664 271.888 191.319 274.715 190.693 277.485 L104.224 277.485 104.224 262.173 190.801 262.173 C191.39 264.418 191.7 266.727 191.724 269.048 Z M151.167 284.048 L151.167 282.485 169.141 282.485 169.141 284.048 Z M72.637 282.485 L72.637 284.048 66.641 284.048 66.641 282.485 Z M77.637 282.485 L103.599 282.485 103.599 284.048 77.637 284.048 Z M108.599 282.485 L110.61 282.485 110.61 284.048 108.599 284.048 Z M115.61 282.485 L121.597 282.485 121.597 284.048 115.61 284.048 Z M126.597 282.485 L134.38 282.485 134.38 284.048 126.597 284.048 Z M139.38 282.485 L146.167 282.485 146.167 284.048 139.38 284.048 Z M72.637 255.61 L72.637 257.173 66.641 257.173 66.641 255.61 Z M77.637 255.61 L103.599 255.61 103.599 257.173 77.637 257.173 Z M160.073 257.173 L160.073 255.61 169.141 255.61 169.141 257.173 Z M155.073 257.173 L148.286 257.173 148.286 255.61 155.073 255.61 Z M143.286 257.173 L126.597 257.173 126.597 255.61 143.286 255.61 Z M121.597 257.173 L115.606 257.173 115.606 255.61 121.597 255.61 Z M110.606 257.173 L108.599 257.173 108.599 255.61 110.606 255.61 Z M180.137 257.173 L174.141 257.173 174.141 255.61 180.137 255.61 Z M191.724 242.173 C191.664 245.013 191.319 247.84 190.693 250.61 L104.224 250.61 104.224 235.298 190.801 235.298 C191.39 237.543 191.7 239.852 191.724 242.173 Z M125.391 159.484 L125.391 193.994 C124.999 194.134 124.609 194.274 124.229 194.436 124.595 192.253 124.322 190.011 123.442 187.979 L123.442 159.597 C124.106 159.572 124.707 159.491 125.391 159.484 Z M169.141 230.298 L161.597 230.298 161.597 178.592 C166.048 186.492 168.629 195.307 169.141 204.36 Z M156.597 230.298 L155.133 230.298 155.117 217.671 C155.123 217.591 155.131 217.37 155.139 217.206 155.141 217.159 155.166 217.119 155.166 217.07 155.166 217.04 155.15 217.015 155.149 216.985 155.231 214.634 155.045 207.155 150.601 200.949 L150.601 166.479 C152.792 168.034 154.803 169.829 156.597 171.83 Z M119.38 192.944 C119.38 196.732 117.098 200.147 113.599 201.597 110.099 203.046 106.071 202.245 103.392 199.567 100.714 196.888 99.913 192.86 101.362 189.36 102.812 185.861 106.227 183.579 110.015 183.579 115.184 183.586 119.373 187.775 119.38 192.944 Z M133.389 197.612 C139.678 197.612 143.403 200.21 145.425 202.388 149.021 206.269 149.912 211.366 150.103 214.57 L144.082 214.57 C143.887 212.177 143.204 208.787 140.986 206.421 139.224 204.556 136.67 203.608 133.389 203.608 130.486 203.46 127.65 204.517 125.552 206.528 123.071 209.04 122.15 212.622 121.805 214.985 L115.767 214.985 C116.119 211.849 117.288 206.359 121.284 202.314 124.508 199.161 128.881 197.462 133.389 197.612 Z M115.601 219.985 L121.597 219.985 121.597 230.298 115.601 230.298 Z M126.597 217.441 C126.616 216.069 127.109 212.07 129.111 210.039 129.717 209.424 130.815 208.608 133.389 208.608 135.264 208.608 136.558 209.014 137.339 209.844 138.862 211.47 139.253 214.971 139.141 217.07 L139.141 230.298 126.597 230.298 Z M144.14 230.298 L144.136 219.57 150.124 219.57 150.134 230.298 Z M145.601 196.057 C144.287 195.184 142.872 194.472 141.387 193.939 L141.387 161.898 C142.822 162.362 144.229 162.909 145.601 163.537 Z M136.387 192.786 C135.392 192.671 134.391 192.613 133.389 192.612 132.385 192.64 131.384 192.728 130.391 192.876 L130.391 159.728 C132.405 159.881 134.408 160.161 136.387 160.567 Z M118.442 181.368 C116.002 179.564 113.049 178.587 110.015 178.579 104.535 178.517 99.498 181.578 97.027 186.469 94.557 191.361 95.084 197.232 98.386 201.605 101.688 205.978 107.19 208.093 112.571 207.056 111.317 210.393 110.651 213.921 110.601 217.485 L110.601 230.298 77.637 230.298 77.637 204.077 C77.669 202.361 78.862 164.271 118.442 159.887 Z M174.141 230.298 L174.141 219.57 180.137 219.57 180.137 230.298 Z M177.646 164.297 C178.672 166.196 178.262 167.07 178.125 167.358 177.391 168.466 176.29 169.28 175.016 169.656 172.509 165.524 169.482 161.732 166.008 158.372 L169.294 155.113 C172.727 157.514 175.581 160.652 177.646 164.297 Z M130.391 107.798 L136.387 107.798 136.387 144.262 C134.465 143.979 132.454 143.803 130.391 143.683 Z M145.601 133.198 L141.387 133.198 141.387 105.391 C141.431 102.964 142.139 101.733 143.491 101.733 143.999 101.733 145.542 101.733 145.601 105.142 Z M141.387 138.198 L145.601 138.198 145.601 146.368 C144.218 145.933 142.86 145.473 141.387 145.132 Z M150.601 107.642 L156.597 107.642 156.597 151.229 C154.666 150.089 152.663 149.076 150.601 148.198 Z M164.957 152.364 L162.214 155.084 C162.007 154.921 161.806 154.754 161.597 154.593 L161.597 150.683 C162.576 151.12 163.722 151.683 164.957 152.364 Z M156.138 89.004 L155.088 89.974 C152.535 87.745 149.364 86.345 145.996 85.959 L145.996 82.651 C152.373 83.42 155.112 87.021 156.138 89.004 Z M143.491 90.737 C146.804 90.636 150.016 91.884 152.393 94.194 154.555 96.534 155.943 99.484 156.367 102.642 L150.3 102.642 C149.503 98.957 147.05 96.733 143.491 96.733 139.948 96.733 137.498 99.005 136.693 102.798 L130.601 102.798 C131.457 97.249 135.178 90.737 143.491 90.737 Z M126.099 148.447 C167.979 148.447 179.761 184.985 180.137 204.253 L180.137 214.57 174.141 214.57 174.141 204.292 C174.087 202.256 172.271 154.443 126.099 154.443 124.549 154.443 123.05 154.492 121.588 154.574 121.38 154.501 121.163 154.457 120.942 154.443 120.564 154.449 120.192 154.542 119.856 154.716 74.029 158.376 72.669 202.054 72.637 204.033 L72.637 230.298 66.641 230.298 66.641 203.989 C66.737 201.991 66.948 200 67.273 198.026 67.871 195.885 68.319 193.704 68.613 191.501 69.979 186.014 72.045 180.726 74.761 175.767 84.814 157.637 102.09 148.447 126.099 148.447 Z M43.428 58.76 C34.614 36.245 22.524 33.091 22.139 32.998 9.502 29.233 5 24.727 5 21.768 5 13.853 31.562 5 67.114 5 102.661 5 129.224 13.853 129.224 21.768 129.224 25.322 123.535 29.292 113.999 32.402 113.223 32.656 94.863 38.955 88.979 63.467 85.912 76.242 80.188 123.296 77.601 162.999 67.546 174.501 63.813 188.351 62.441 196.641 61.486 200.107 59.874 204.324 57.276 207.082 55.181 165.133 50.024 75.621 43.428 58.76 Z M58.286 228.628 C58.239 227.524 57.994 221.841 57.577 213.213 59.123 212.302 60.498 211.127 61.641 209.743 L61.641 230.298 58.33 230.298 Z M52.036 235.298 L99.224 235.298 99.224 250.61 52.036 250.61 Z M58.988 255.61 L61.641 255.61 61.641 257.173 59.028 257.173 Z M52.036 262.173 L99.224 262.173 99.224 277.485 52.036 277.485 Z M59.691 282.485 L61.641 282.485 61.641 284.048 59.732 284.048 Z M52.036 289.048 L99.224 289.048 99.224 304.36 52.036 304.36 Z M169.142 309.36 L169.146 316.86 C169.229 318.296 169.229 323.267 165.933 326.958 165.034 327.946 163.994 328.796 162.847 329.48 L162.847 309.36 Z M157.847 331.522 C155.885 332.045 153.879 332.39 151.855 332.552 L151.851 309.36 157.847 309.36 Z M146.851 309.36 L146.855 332.792 C145.713 332.78 144.676 332.682 143.628 332.593 L143.628 309.36 Z M138.628 331.792 C136.499 331.303 134.47 330.449 132.632 329.268 L132.632 309.36 138.628 309.36 Z M127.632 323.044 C126.904 321.065 126.552 318.968 126.597 316.86 L126.597 309.36 127.632 309.36 Z M121.597 313.931 L115.615 313.931 115.615 309.36 121.597 309.36 Z M110.616 309.36 L110.62 316.245 C110.267 324.305 113.082 332.182 118.462 338.193 121.066 340.982 124.178 343.247 127.632 344.868 L127.632 365.845 C127.632 365.86 127.632 365.896 127.632 365.912 L127.632 365.914 C127.601 367.396 127.722 374.37 132.661 379.463 135.17 382.001 138.471 383.605 142.017 384.008 141.869 389.734 140.569 408.349 130.034 419.16 124.858 424.478 118.066 427.173 109.849 427.173 102.007 427.173 95.474 424.478 90.42 419.165 79.855 408.045 77.927 388.165 77.637 378.569 L77.637 309.36 Z M157.668 368.711 C157.311 371.214 156.216 373.553 154.521 375.43 152.891 377.168 149.839 379.233 144.541 379.233 141.447 379.34 138.447 378.163 136.25 375.981 134.341 373.878 133.135 371.233 132.8 368.413 L138.988 368.413 C139.725 370.858 141.62 373.237 144.863 373.237 146.858 373.343 148.799 372.575 150.181 371.133 150.795 370.435 151.244 369.607 151.491 368.711 Z M146.857 348.801 L146.87 366.164 C146.869 366.18 146.86 366.194 146.86 366.211 146.86 366.228 146.87 366.242 146.87 366.259 L146.87 366.45 C146.888 366.921 146.751 367.384 146.479 367.769 146.019 368.123 145.442 368.29 144.863 368.237 143.999 368.237 143.628 366.602 143.628 366.079 L143.628 348.683 C144.684 348.746 145.755 348.792 146.857 348.801 Z M138.628 363.413 L132.632 363.413 132.632 346.777 C134.594 347.386 136.598 347.853 138.628 348.174 Z M72.637 427.07 L66.641 427.07 66.641 309.36 72.637 309.36 72.637 372.937 C72.611 373.454 72.52 375.82 72.637 379.363 Z M61.473 309.36 L61.641 309.36 61.641 311.345 Z M69.575 477.9 C69.502 477.895 63.242 478.037 58.809 476.455 L58.809 472.996 C62.817 473.904 66.911 474.378 71.02 474.409 74.207 474.434 77.383 474.045 80.469 473.25 L80.469 476.421 C76.934 477.466 73.261 477.965 69.575 477.9 Z M76.719 466.445 C76.72 467.16 77.025 467.84 77.559 468.315 L78.012 468.718 C72.146 469.99 65.743 469.24 61.573 468.445 L61.719 468.315 C62.252 467.84 62.558 467.16 62.559 466.445 62.559 463.569 62.876 459.726 63.335 458.813 64.362 457.305 65.615 455.965 67.051 454.839 67.634 454.364 67.972 453.652 67.974 452.9 L67.974 432.07 71.304 432.07 71.304 452.9 C71.305 453.652 71.644 454.364 72.227 454.839 73.662 455.965 74.916 457.305 75.942 458.813 76.406 459.741 76.719 463.506 76.719 466.445 Z M140.498 428.892 C133.013 437.085 122.7 441.235 109.849 441.235 96.416 441.235 85.6 436.495 77.637 427.209 L77.637 407.144 C79.613 412.86 82.725 418.117 86.787 422.598 92.822 428.95 100.581 432.173 109.849 432.173 119.468 432.173 127.461 428.97 133.618 422.651 145.571 410.376 146.909 390.17 147.03 383.976 149.873 383.727 152.62 382.821 155.052 381.329 155.043 392.14 153.362 414.821 140.498 428.892 Z M157.855 363.711 L151.86 363.711 151.856 348.658 C153.865 348.522 155.866 348.278 157.848 347.925 Z M174.126 334.297 C168.477 340.615 159.468 343.818 147.349 343.818 136.157 343.818 127.671 340.781 122.134 334.795 118.21 330.411 115.917 324.808 115.642 318.931 L121.648 318.931 C121.907 323.35 123.669 327.549 126.641 330.83 131.006 335.469 137.974 337.822 147.349 337.822 157.676 337.822 165.181 335.288 169.658 330.293 172.318 327.165 173.878 323.25 174.099 319.15 L180.148 319.15 C179.915 324.736 177.792 330.076 174.126 334.297 Z M180.14 314.15 L174.141 314.15 174.141 309.36 180.138 309.36 Z M191.724 295.923 C191.664 298.763 191.319 301.59 190.693 304.36 L104.224 304.36 104.224 289.048 190.801 289.048 C191.39 291.293 191.7 293.602 191.724 295.923 Z M180.137 284.048 L174.141 284.048 174.141 282.485 180.137 282.485 Z" fill="#000000" fill-opacity="1" stroke="none"/>
</svg>
